<?xml version="1.0" standalone="no"?>
<!DOCTYPE svg PUBLIC "-//W3C//DTD SVG 20010904//EN" "http://www.w3.org/TR/2001/REC-SVG-20010904/DTD/svg10.dtd">
<!-- Created using Krita: https://krita.org -->
<svg xmlns="http://www.w3.org/2000/svg" 
    xmlns:xlink="http://www.w3.org/1999/xlink"
    xmlns:krita="http://krita.org/namespaces/svg/krita"
    xmlns:sodipodi="http://sodipodi.sourceforge.net/DTD/sodipodi-0.dtd"
    width="526pt"
    height="710pt"
    viewBox="0 0 526 710">
<defs/>
<path id="shape0" transform="translate(359.563798233359, 328.451099861151)" fill="none" stroke="#000000" stroke-width="2.04999999999984" stroke-linecap="square" stroke-linejoin="bevel" d="M6.01041 21.5668L0.707107 33.5876L25.4558 46.3155L35.3553 42.0729L43.1335 26.5489L33.234 20.1525L22.6274 16.9706L17.3241 0L0 1.41421C0 1.41421 2.00347 8.13173 6.01041 21.5668Z" sodipodi:nodetypes="cccccccccc"/><path id="shape1" transform="translate(321.026478658692, 340.471915141323)" fill="none" stroke="#000000" stroke-width="2.04999999999984" stroke-linecap="square" stroke-linejoin="bevel" d="M13.0815 0L27.5772 9.54594L26.8701 14.5281L12.0208 14.5281L0 6.01041C0 6.01041 4.36049 4.00694 13.0815 0Z" sodipodi:nodetypes="cccccc"/><path id="shape2" transform="translate(288.146013333518, 346.835876172001)" fill="none" stroke="#000000" stroke-width="2.04999999999984" stroke-linecap="square" stroke-linejoin="bevel" d="M18.3848 0L18.3848 18.3848L0 19.0919L0.353553 0C0.353553 0 6.36396 0 18.3848 0Z" sodipodi:nodetypes="ccccc"/><path id="shape3" transform="translate(305.116576081995, 298.399061660723)" fill="none" stroke="#000000" stroke-width="2.04999999999984" stroke-linecap="square" stroke-linejoin="bevel" d="M13.0815 0L0 13.435L7.07107 22.981L20.8597 26.163C20.8597 26.163 18.2669 17.442 13.0815 0Z" sodipodi:nodetypes="ccccc"/><path id="shape4" transform="translate(341.179021922509, 301.934595566656)" fill="none" stroke="#000000" stroke-width="2.04999999999984" stroke-linecap="square" stroke-linejoin="bevel" d="M1.06066 1.76777L0 12.0208L15.5563 19.0919L25.4558 15.9099L22.2739 0C22.2739 0 15.2028 0.589256 1.06066 1.76777Z" sodipodi:nodetypes="cccccc"/><path id="shape5" transform="translate(334.107954110644, 366.281312654632)" fill="none" stroke="#000000" stroke-width="2.04999999999984" stroke-linecap="square" stroke-linejoin="bevel" d="M7.07107 1.76777L7.77817 15.2028L0 15.9099L1.06066 0C1.06066 0 3.06413 0.589256 7.07107 1.76777Z" sodipodi:nodetypes="ccccc"/><path id="shape6" transform="translate(271.75001395241, 303.000015556873)" fill="none" stroke="#000000" stroke-width="2.04999999999984" stroke-linecap="square" stroke-linejoin="bevel" d="M5 0.25L15 11.75L16.5 16.25L6.75 19.75L0.5 16L0 0C0 0 1.66667 0.0833333 5 0.25Z" sodipodi:nodetypes="ccccccc"/><path id="shape7" transform="translate(286.250014696881, 287.750014773895)" fill="none" stroke="#000000" stroke-width="2.04999999999984" stroke-linecap="square" stroke-linejoin="bevel" d="M0 0L0.5 7.75L18.5 9.25L19.5 0.25C19.3333 0.25 12.8333 0.166667 0 0Z" sodipodi:nodetypes="ccccc"/><path id="shape8" transform="translate(290.500014915088, 264.500013580174)" fill="none" stroke="#000000" stroke-width="2.04999999999984" stroke-linecap="square" stroke-linejoin="bevel" d="M0.5 0L0 8L6.5 12.25L14 8.25L14.25 0.75C13.75 0.583333 9.16667 0.333333 0.5 0Z" sodipodi:nodetypes="cccccc"/><path id="shape9" transform="translate(331.250017007307, 264.75001359301)" fill="none" stroke="#000000" stroke-width="2.04999999999984" stroke-linecap="square" stroke-linejoin="bevel" d="M1.25 0L0 9.25L13 13.5L17.75 4C17.5833 3.83333 12.0833 2.5 1.25 0Z" sodipodi:nodetypes="ccccc"/><path id="shape10" transform="translate(354.000018175356, 284.750014619866)" fill="none" stroke="#000000" stroke-width="2.04999999999984" stroke-linecap="square" stroke-linejoin="bevel" d="M3.75 0L0 6.5L8 11.25L14 6C14 6.16667 10.5833 4.16667 3.75 0Z" sodipodi:nodetypes="ccccc"/><path id="shape11" transform="translate(362.750018624606, 265.000013605846)" fill="none" stroke="#000000" stroke-width="2.04999999999984" stroke-linecap="square" stroke-linejoin="bevel" d="M13 0L0 7.75L12.75 12.25L29.5 8.5C29.5 8.5 24 5.66667 13 0Z" sodipodi:nodetypes="ccccc"/><path id="shape12" transform="translate(390.250020036533, 307.750015800751)" fill="none" stroke="#000000" stroke-width="2.04999999999984" stroke-linecap="square" stroke-linejoin="bevel" d="M0 0L11.25 18.75L14.75 5.5C14.0833 5.33333 9.16667 3.5 0 0Z" sodipodi:nodetypes="cccc"/><path id="shape13" transform="translate(348.250096139367, 230.163261509368)" fill="none" stroke="#000000" stroke-width="2.04999999999984" stroke-linecap="square" stroke-linejoin="bevel" d="M0 5.65685L8.48528 17.3241L22.2739 18.3848L22.6274 8.13173L5.3033 0C5.3033 0 3.53553 1.88562 0 5.65685Z" sodipodi:nodetypes="cccccc"/><path id="shape14" transform="translate(306.530795282062, 224.15285375874)" fill="none" stroke="#000000" stroke-width="2.04999999999984" stroke-linecap="square" stroke-linejoin="bevel" d="M0 6.01041L11.6673 31.1127L14.4957 30.7591L29.3449 19.4454L8.13173 0C8.13173 0 5.42115 2.00347 0 6.01041Z" sodipodi:nodetypes="cccccc"/><path id="shape15" transform="translate(378.655688289606, 223.092193567452)" fill="none" stroke="#000000" stroke-width="2.04999999999984" stroke-linecap="square" stroke-linejoin="bevel" d="M0 9.8995L30.4056 33.9411L45.9619 30.4056L9.54594 0C9.54594 0 6.36396 3.29983 0 9.8995Z" sodipodi:nodetypes="ccccc"/><path id="shape16" transform="translate(279.660737102781, 245.719610981584)" fill="none" stroke="#000000" stroke-width="2.04999999999984" stroke-linecap="square" stroke-linejoin="bevel" d="M0 0L12.3744 8.48528L26.5165 7.07107L26.8701 2.82843C26.8701 2.82843 17.9134 1.88562 0 0Z" sodipodi:nodetypes="ccccc"/><path id="shape17" transform="translate(275.418096337631, 214.960465434249)" fill="none" stroke="#000000" stroke-width="2.04999999999984" stroke-linecap="square" stroke-linejoin="bevel" d="M10.9602 0L0 10.253L10.9602 20.5061L23.6881 11.6673C23.6881 11.6673 19.4454 7.77817 10.9602 0Z" sodipodi:nodetypes="ccccc"/><path id="shape18" transform="translate(227.334834332602, 307.237902076253)" fill="none" stroke="#000000" stroke-width="2.04999999999984" stroke-linecap="square" stroke-linejoin="bevel" d="M26.163 0L26.163 21.2132L15.2028 24.7487L0.707107 22.981L0 0C0 0 8.72098 0 26.163 0Z" sodipodi:nodetypes="cccccc"/><path id="shape19" transform="translate(323.147799828001, 185.261977144281)" fill="none" stroke="#000000" stroke-width="2.04999999999984" stroke-linecap="square" stroke-linejoin="bevel" d="M22.2739 0L0 20.8597L6.01041 37.1231L33.234 18.3848C32.7626 18.3848 29.1092 12.2565 22.2739 0Z" sodipodi:nodetypes="ccccc"/><path id="shape20" transform="translate(366.281313590601, 200.818326370136)" fill="none" stroke="#000000" stroke-width="2.04999999999984" stroke-linecap="square" stroke-linejoin="bevel" d="M0 0.353553L9.54594 13.7886L23.6881 13.7886L25.8094 0C25.5737 0 16.9706 0.117851 0 0.353553Z" sodipodi:nodetypes="ccccc"/><path id="shape21" transform="translate(287.438907286833, 191.625938191222)" fill="none" stroke="#000000" stroke-width="2.04999999999984" stroke-linecap="square" stroke-linejoin="bevel" d="M18.3848 0L19.799 11.6673L11.6673 17.6777L0 14.1421C0 14.1421 6.12826 9.42809 18.3848 0Z" sodipodi:nodetypes="ccccc"/><path id="shape22" transform="translate(408.354167178711, 265.872150405533)" fill="none" stroke="#000000" stroke-width="2.04999999999984" stroke-linecap="square" stroke-linejoin="bevel" d="M1.06066 10.6066L16.2635 12.7279L23.6881 3.53553L0 0C0 0 0.353553 3.53553 1.06066 10.6066Z" sodipodi:nodetypes="ccccc"/><path id="shape23" transform="translate(229.456151081371, 223.09219003443)" fill="none" stroke="#000000" stroke-width="2.04999999999984" stroke-linecap="square" stroke-linejoin="bevel" d="M25.1023 2.47487L19.0919 17.6777L38.8909 27.2236L33.5438 45.9619L19.4454 37.1231L0 42.78L9.19239 0C9.19239 0 14.4957 0.824958 25.1023 2.47487Z" sodipodi:nodetypes="cccccccc"/><path id="shape24" transform="translate(429.213832770276, 232.638140002341)" fill="none" stroke="#000000" stroke-width="2.04999999999984" stroke-linecap="square" stroke-linejoin="bevel" d="M0 5.3033L10.6066 14.1421L18.3848 13.7886L18.7383 7.42462L5.3033 0C5.3033 0 3.53553 1.76777 0 5.3033Z" sodipodi:nodetypes="cccccc"/><path id="shape25" transform="translate(271.000012020488, 176.500007828842)" fill="none" stroke="#000000" stroke-width="2.04999999999984" stroke-linecap="square" stroke-linejoin="bevel" d="M0 5.75L9.25 14.5L18.5 7L15.75 0C15.75 0 10.5 1.91667 0 5.75Z" sodipodi:nodetypes="ccccc"/><path id="shape26" transform="translate(309.000013706018, 177.00000785102)" fill="none" stroke="#000000" stroke-width="2.04999999999984" stroke-linecap="square" stroke-linejoin="bevel" d="M0 9.75L11.75 0L18.5 6.5L8.25 13.5C8.08333 13.5 5.33333 12.25 0 9.75Z" sodipodi:nodetypes="ccccc"/><path id="shape27" transform="translate(311.500013816908, 159.500007074789)" fill="none" stroke="#000000" stroke-width="2.04999999999984" stroke-linecap="square" stroke-linejoin="bevel" d="M0 6.75L10.75 14.25L22.75 9.5L18.5 2.25L1.25 0C1.25 0 0.833333 2.25 0 6.75Z" sodipodi:nodetypes="cccccc"/><path id="shape28" transform="translate(351.500015591149, 155.750006908454)" fill="none" stroke="#000000" stroke-width="2.04999999999984" stroke-linecap="square" stroke-linejoin="bevel" d="M0 0L6 21L25.5 20.75C25.5 20.75 17 13.8333 0 0Z" sodipodi:nodetypes="cccc"/><path id="shape29" transform="translate(412.500018296868, 192.750008549627)" fill="none" stroke="#000000" stroke-width="2.04999999999984" stroke-linecap="square" stroke-linejoin="bevel" d="M1.25 0L0 14.25L19.25 16.75L19.5 8C19.5 8 13.4167 5.33333 1.25 0Z" sodipodi:nodetypes="ccccc"/><path id="shape30" transform="translate(397.750017642616, 177.750007884287)" fill="none" stroke="#000000" stroke-width="2.04999999999984" stroke-linecap="square" stroke-linejoin="bevel" d="M16.25 8.75L11.25 15.75L0 5.25L3 0C3 0 7.41667 2.91667 16.25 8.75Z" sodipodi:nodetypes="ccccc"/><path id="shape31" transform="translate(453.250020104377, 197.000008738141)" fill="none" stroke="#000000" stroke-width="2.04999999999984" stroke-linecap="square" stroke-linejoin="bevel" d="M0 0L0 7.25L18 15.25L18.5 4C18.5 4 12.3333 2.66667 0 0Z" sodipodi:nodetypes="ccccc"/><path id="shape32" transform="translate(390.000017298857, 159.000007052611)" fill="none" stroke="#000000" stroke-width="2.04999999999984" stroke-linecap="square" stroke-linejoin="bevel" d="M0 0L0.5 7L15.75 12.75L20.25 4C20.0833 4 13.3333 2.66667 0 0Z" sodipodi:nodetypes="ccccc"/><path id="shape33" transform="translate(215.137238174884, 266.402479810641)" fill="none" stroke="#000000" stroke-width="2.04999999999984" stroke-linecap="square" stroke-linejoin="bevel" d="M16.617 3.18198L17.8544 10.9602L0.883883 10.9602L0 0C0 0 5.539 1.06066 16.617 3.18198Z" sodipodi:nodetypes="ccccc"/><path id="shape34" transform="translate(198.697005512382, 236.350441610369)" fill="none" stroke="#000000" stroke-width="2.04999999999984" stroke-linecap="square" stroke-linejoin="bevel" d="M0.176777 0L0 10.7834L10.4298 10.6066L9.54594 0.707107C9.54594 0.707107 6.42289 0.471405 0.176777 0Z" sodipodi:nodetypes="ccccc"/><path id="shape35" transform="translate(176.599918600418, 232.107800923272)" fill="none" stroke="#000000" stroke-width="2.04999999999984" stroke-linecap="square" stroke-linejoin="bevel" d="M13.2583 0.883883L13.2583 13.9654L1.41421 15.026L0 0C0 0 4.41942 0.294628 13.2583 0.883883Z" sodipodi:nodetypes="ccccc"/><path id="shape36" transform="translate(170.943064350955, 260.392072170587)" fill="none" stroke="#000000" stroke-width="2.04999999999984" stroke-linecap="square" stroke-linejoin="bevel" d="M15.3796 0.707107L17.1473 18.5616L0 19.0919L6.01041 9.54594L5.12652 0C5.12652 0 8.54421 0.235702 15.3796 0.707107Z" sodipodi:nodetypes="cccccc"/><path id="shape37" transform="translate(145.133671805495, 248.017711989171)" fill="none" stroke="#000000" stroke-width="2.04999999999984" stroke-linecap="square" stroke-linejoin="bevel" d="M4.59619 11.1369L21.9203 7.07107L17.8544 0L0 4.06586C0 4.06586 1.53206 6.42289 4.59619 11.1369Z" sodipodi:nodetypes="ccccc"/><path id="shape38" transform="translate(130.63798229508, 263.574061707665)" fill="none" stroke="#000000" stroke-width="2.04999999999984" stroke-linecap="square" stroke-linejoin="bevel" d="M7.07107 16.9706L20.1525 12.3744L20.3293 0.176777L8.83884 0L5.12652 8.13173L0 11.3137L5.12652 16.9706C5.12652 16.9706 5.77471 16.9706 7.07107 16.9706Z" sodipodi:nodetypes="cccccccc"/><path id="shape39" transform="translate(191.000006780688, 301.000010685796)" fill="none" stroke="#000000" stroke-width="2.04999999999984" stroke-linecap="square" stroke-linejoin="bevel" d="M14.5 0L0 10.5L5.75 20.5L16.5 20L23.75 9.75C23.5833 9.75 20.5 6.5 14.5 0Z" sodipodi:nodetypes="cccccc"/><path id="shape40" transform="translate(138.250004908011, 299.000010614794)" fill="none" stroke="#000000" stroke-width="2.04999999999984" stroke-linecap="square" stroke-linejoin="bevel" d="M44.25 0L39.25 21.25L15.25 25.75L0 14.75C0.166667 14.75 14.9167 9.83333 44.25 0Z" sodipodi:nodetypes="ccccc"/><path id="shape41" transform="translate(206.750007868142, 338.000012863033)" fill="none" stroke="#000000" stroke-width="2.04999999999984" stroke-linecap="square" stroke-linejoin="bevel" d="M6.25 0L31.25 20.75L23 28.25L0 8.75C0.166667 8.75 2.25 5.83333 6.25 0Z" sodipodi:nodetypes="ccccc"/><path id="shape42" transform="translate(260.000009894641, 350.500013338737)" fill="none" stroke="#000000" stroke-width="2.04999999999984" stroke-linecap="square" stroke-linejoin="bevel" d="M0 0L12.75 9L21.25 0C21.25 0 14.1667 0 0 0Z" sodipodi:nodetypes="cccc"/><path id="shape43" transform="translate(167.500006374432, 333.000012672752)" fill="none" stroke="#000000" stroke-width="2.04999999999984" stroke-linecap="square" stroke-linejoin="bevel" d="M19.75 0L32.25 18L9.5 37L0 27C0 27 6.58333 18 19.75 0Z" sodipodi:nodetypes="ccccc"/><path id="shape44" transform="translate(197.000007497093, 361.500013757357)" fill="none" stroke="#000000" stroke-width="2.04999999999984" stroke-linecap="square" stroke-linejoin="bevel" d="M1.25 0.75L11.25 0L10.75 11.75L0 12C0 12 0.416667 8.25 1.25 0.75Z" sodipodi:nodetypes="ccccc"/><path id="shape45" transform="translate(123.500004699955, 292.250011121957)" fill="none" stroke="#000000" stroke-width="2.04999999999984" stroke-linecap="square" stroke-linejoin="bevel" d="M0 8.75L13 13.5L22.25 0L2.25 3C1.91667 3 1.16667 4.91667 0 8.75Z" sodipodi:nodetypes="ccccc"/><path id="shape46" transform="translate(269.407693433512, 368.225869699478)" fill="none" stroke="#000000" stroke-width="2.04999999999984" stroke-linecap="square" stroke-linejoin="bevel" d="M17.8544 2.2981L17.6777 34.4715L3.0052 44.7245L0 10.9602L10.6066 0C10.6066 0 13.0226 0.766032 17.8544 2.2981Z" sodipodi:nodetypes="cccccc"/><path id="shape47" transform="translate(305.646917287757, 381.307345627352)" fill="none" stroke="#000000" stroke-width="2.04999999999984" stroke-linecap="square" stroke-linejoin="bevel" d="M0 6.71751L5.65685 15.7331L14.8492 15.7331L22.6274 8.13173L20.5061 0L3.0052 1.06066C3.0052 1.06066 2.00347 2.94628 0 6.71751Z" sodipodi:nodetypes="ccccccc"/><path id="shape48" transform="translate(345.598451878291, 383.605442749817)" fill="none" stroke="#000000" stroke-width="2.04999999999984" stroke-linecap="square" stroke-linejoin="bevel" d="M0 5.3033L22.981 16.0867L22.6274 9.54594L29.6985 6.71751L28.1075 0.176777L4.77297 0C4.77297 0 3.18198 1.76777 0 5.3033Z" sodipodi:nodetypes="ccccccc"/><path id="shape49" transform="translate(386.257067820715, 376.357573176339)" fill="none" stroke="#000000" stroke-width="2.04999999999984" stroke-linecap="square" stroke-linejoin="bevel" d="M0.176777 10.4298L7.42462 19.6222L16.4402 22.0971L21.2132 16.0867L18.0312 10.9602L14.3189 13.0815L4.59619 0L0 2.65165C0 2.65165 0.0589256 5.24438 0.176777 10.4298Z" sodipodi:nodetypes="ccccccccc"/><path id="shape50" transform="translate(216.00000129295, 376.00000225069)" fill="none" stroke="#000000" stroke-width="2.04999999999984" stroke-linecap="square" stroke-linejoin="bevel" d="M30.5 0L34 10.75L19.25 23L1.5 25L0 14.25L18.25 12.75L21.75 0C21.75 0 24.6667 0 30.5 0Z" sodipodi:nodetypes="cccccccc"/><path id="shape51" transform="translate(173.241168578842, 379.716357252401)" fill="none" stroke="#000000" stroke-width="2.04999999999984" stroke-linecap="square" stroke-linejoin="bevel" d="M0 7.95495L16.2635 0L19.799 5.3033L1.94454 15.7331C1.70884 15.4974 1.06066 12.9047 0 7.95495Z" sodipodi:nodetypes="ccccc"/><path id="shape52" transform="translate(149.906643831488, 380.953794170821)" fill="none" stroke="#000000" stroke-width="2.04999999999984" stroke-linecap="square" stroke-linejoin="bevel" d="M18.0312 0L18.3848 12.1976L0 12.0208L0 7.6014C0 7.6014 6.01041 5.0676 18.0312 0Z" sodipodi:nodetypes="ccccc"/><path id="shape53" transform="translate(126.748895786765, 341.886142889266)" fill="none" stroke="#000000" stroke-width="2.04999999999984" stroke-linecap="square" stroke-linejoin="bevel" d="M26.3397 0L28.9914 11.1369L16.4402 16.9706L0.707107 10.0763L0 6.01041C0 5.89256 8.77991 3.88909 26.3397 0Z" sodipodi:nodetypes="cccccc"/><path id="shape54" transform="translate(98.2878466630981, 306.884355768234)" fill="none" stroke="#000000" stroke-width="2.04999999999984" stroke-linecap="square" stroke-linejoin="bevel" d="M0.883884 0.707107L0 21.39L7.07107 27.7539L24.0416 21.2132L23.1577 7.77817L14.1421 0C14.1421 0 9.72272 0.235702 0.883884 0.707107Z" sodipodi:nodetypes="ccccccc"/><path id="shape55" transform="translate(109.750002426538, 377.500008346407)" fill="none" stroke="#000000" stroke-width="2.04999999999984" stroke-linecap="square" stroke-linejoin="bevel" d="M0 0L0.25 14.75L10.25 26.5L22.25 26.5L22.75 6.75C22.75 6.75 15.1667 4.5 0 0Z" sodipodi:nodetypes="cccccc"/><path id="shape56" transform="translate(164.000003625989, 413.500009142356)" fill="none" stroke="#000000" stroke-width="2.04999999999984" stroke-linecap="square" stroke-linejoin="bevel" d="M28.5 0L30 16L20.5 26L3.75 24.25L0 14.5C0 14.5 9.5 9.66667 28.5 0Z" sodipodi:nodetypes="cccccc"/><path id="shape57" transform="translate(93.000002056201, 345.500007638897)" fill="none" stroke="#000000" stroke-width="2.04999999999984" stroke-linecap="square" stroke-linejoin="bevel" d="M25 4.25L1.75 9.49999L0 3.5L24.25 0C24.25 0 24.5 1.41667 25 4.25Z" sodipodi:nodetypes="ccccc"/><path id="shape58" transform="translate(209.750004637507, 418.500009252905)" fill="none" stroke="#000000" stroke-width="2.04999999999984" stroke-linecap="square" stroke-linejoin="bevel" d="M11.5 0L0 5.75L2.25 13.75L20.25 14.5L20.5 5.25C20.5 5.25 17.5 3.5 11.5 0Z" sodipodi:nodetypes="cccccc"/><path id="shape59" transform="translate(267.000005903287, 419.750009280542)" fill="none" stroke="#000000" stroke-width="2.04999999999984" stroke-linecap="square" stroke-linejoin="bevel" d="M1.25 0L18.75 2.25L18.5 10.5L9.25 15.25L0 8C0 8 0.416667 5.33333 1.25 0Z" sodipodi:nodetypes="cccccc"/><path id="shape60" transform="translate(328.500007263033, 415.250009181048)" fill="none" stroke="#000000" stroke-width="2.04999999999984" stroke-linecap="square" stroke-linejoin="bevel" d="M1 1.25L0 23.5L17.5 14L18.25 0C18.25 0 12.5 0.416667 1 1.25Z" sodipodi:nodetypes="ccccc"/><path id="shape61" transform="translate(299.750006627379, 434.750009612187)" fill="none" stroke="#000000" stroke-width="2.04999999999984" stroke-linecap="square" stroke-linejoin="bevel" d="M0 0.5L1.5 8L9 13.75L14.75 12.75L19.25 3.75L15.25 0C14.9167 0.166667 9.83333 0.333333 0 0.5Z" sodipodi:nodetypes="ccccccc"/><path id="shape62" transform="translate(344.750007622315, 435.500009628769)" fill="none" stroke="#000000" stroke-width="2.04999999999984" stroke-linecap="square" stroke-linejoin="bevel" d="M0 0L1 10.75L22.75 12.5L27.25 1.5C27.25 1.5 18.1667 1 0 0Z" sodipodi:nodetypes="ccccc"/><path id="shape63" transform="translate(368.000016533446, 413.218768565026)" fill="none" stroke="#000000" stroke-width="2.04999999999984" stroke-linecap="square" stroke-linejoin="bevel" d="M14 1.53125L17.5 21.7813L6 20.5313L0 6.53125L6.5 0.03125C6.5 -0.135417 9 0.364583 14 1.53125Z" sodipodi:nodetypes="cccccc"/><path id="shape64" transform="translate(406.7500182744, 413.750018588894)" fill="none" stroke="#000000" stroke-width="2.04999999999984" stroke-linecap="square" stroke-linejoin="bevel" d="M0 3L0.25 14.25L19.5 18.5L24.75 3.75L15.5 0C15.5 0 10.3333 1 0 3Z" sodipodi:nodetypes="cccccc"/><path id="shape65" transform="translate(428.750019262812, 383.000017207363)" fill="none" stroke="#000000" stroke-width="2.04999999999984" stroke-linecap="square" stroke-linejoin="bevel" d="M0 0L0.5 11.75L19 16.25L17.75 8.25C17.75 8.25 11.8333 5.5 0 0Z" sodipodi:nodetypes="ccccc"/><path id="shape66" transform="translate(136.825168481672, 435.224243930074)" fill="none" stroke="#000000" stroke-width="2.04999999999984" stroke-linecap="square" stroke-linejoin="bevel" d="M14.3189 11.6673L21.39 0.53033L9.36917 0L0 4.06586L0.707107 11.6673C0.707107 11.6673 5.24438 11.6673 14.3189 11.6673Z" sodipodi:nodetypes="cccccc"/><path id="shape67" transform="translate(153.618955310818, 454.139351200796)" fill="none" stroke="#000000" stroke-width="2.04999999999984" stroke-linecap="square" stroke-linejoin="bevel" d="M0 0L0 14.3189L12.0208 16.2635L24.9255 7.07107L23.3345 0.176777C23.3345 0.176777 15.5563 0.117851 0 0Z" sodipodi:nodetypes="cccccc"/><path id="shape68" transform="translate(210.500002790098, 446.250005914874)" fill="none" stroke="#000000" stroke-width="2.04999999999984" stroke-linecap="square" stroke-linejoin="bevel" d="M7.75 0L0 30.25L9.5 33.5L12.75 26L23.75 24L28 2.5C27.6667 2.66667 20.9167 1.83333 7.75 0Z" sodipodi:nodetypes="ccccccc"/><path id="shape69" transform="translate(269.750003575434, 449.500005957952)" fill="none" stroke="#000000" stroke-width="2.04999999999984" stroke-linecap="square" stroke-linejoin="bevel" d="M0 0L3.25 15.5L23.75 15C23.25 14.8333 15.3333 9.83333 0 0Z" sodipodi:nodetypes="cccc"/><path id="shape70" transform="translate(78.5625051753129, 383.750025279571)" fill="none" stroke="#000000" stroke-width="2.04999999999984" stroke-linecap="square" stroke-linejoin="bevel" d="M0.5625 0L9.6875 0.125L15.0625 7L3.6875 13.75L0.0625 11.25C-0.104167 11.0833 0.0625 7.33333 0.5625 0Z" sodipodi:nodetypes="cccccc"/><path id="shape71" transform="translate(31.7500020915346, 380.87502509018)" fill="none" stroke="#000000" stroke-width="2.04999999999984" stroke-linecap="square" stroke-linejoin="bevel" d="M23 0L18.875 18.375L2 16.375L0 9.25C0 9.25 7.66667 6.16667 23 0Z" sodipodi:nodetypes="ccccc"/><path id="shape72" transform="translate(50.1250033019896, 342.12502253752)" fill="none" stroke="#000000" stroke-width="2.04999999999984" stroke-linecap="square" stroke-linejoin="bevel" d="M0 0L0 10.25L10.625 22.25L16.375 21.25L29.75 5.875C29.5 5.875 19.5833 3.91667 0 0Z" sodipodi:nodetypes="cccccc"/><path id="shape73" transform="translate(31.2894761776412, 300.343615965042)" fill="none" stroke="#000000" stroke-width="2.04999999999984" stroke-linecap="square" stroke-linejoin="bevel" d="M12.7279 0.353553L0 14.8492L1.23744 26.8701L13.6118 26.6933L27.2236 16.7938L27.7539 7.07107L22.981 0C22.981 0 19.5633 0.117851 12.7279 0.353553Z" sodipodi:nodetypes="cccccccc"/><path id="shape74" transform="translate(65.2306028788114, 304.763033504257)" fill="none" stroke="#000000" stroke-width="2.04999999999984" stroke-linecap="square" stroke-linejoin="bevel" d="M28.461 0L0 8.13173L7.77817 15.3796L29.1682 13.7886C29.1682 13.7886 28.9325 9.19239 28.461 0Z" sodipodi:nodetypes="ccccc"/><path id="shape75" transform="translate(50.6250010591058, 263.125005504735)" fill="none" stroke="#000000" stroke-width="2.04999999999984" stroke-linecap="square" stroke-linejoin="bevel" d="M19.75 12.25L6.125 24.75L0 16.5L9.875 0L19.375 5.75C19.375 5.83333 19.5 8 19.75 12.25Z" sodipodi:nodetypes="cccccc"/><path id="shape76" transform="translate(89.1250018645492, 262.625005494275)" fill="none" stroke="#000000" stroke-width="2.04999999999984" stroke-linecap="square" stroke-linejoin="bevel" d="M0 9.75L1.5 18L24.125 12.125L23.875 5.875L13.375 0C13.375 0 8.91667 3.25 0 9.75Z" sodipodi:nodetypes="cccccc"/><path id="shape77" transform="translate(72.4784443848919, 221.677973801596)" fill="none" stroke="#000000" stroke-width="2.04999999999984" stroke-linecap="square" stroke-linejoin="bevel" d="M22.6274 2.47487L23.5113 25.9862L18.0312 35.1786L3.35876 33.5876L0 23.5113L5.83363 0C5.83363 0 11.4316 0.824958 22.6274 2.47487Z" sodipodi:nodetypes="ccccccc"/><path id="shape78" transform="translate(39.4212026776363, 231.223915257167)" fill="none" stroke="#000000" stroke-width="2.04999999999984" stroke-linecap="square" stroke-linejoin="bevel" d="M2.65165 0L19.4454 9.89949L11.4905 16.2635L3.88909 16.2635L0 12.0208C0 12.0208 0.883883 8.01388 2.65165 0Z" sodipodi:nodetypes="cccccc"/><path id="shape79" transform="translate(115.788736451785, 236.173667022266)" fill="none" stroke="#000000" stroke-width="2.04999999999984" stroke-linecap="square" stroke-linejoin="bevel" d="M0.176777 0L0 7.42462L9.8995 12.1976L20.6829 10.9602L21.2132 3.71231C21.2132 3.71231 14.2011 2.47487 0.176777 0Z" sodipodi:nodetypes="cccccc"/><path id="shape80" transform="translate(169.000011047608, 192.250012567471)" fill="none" stroke="#000000" stroke-width="2.04999999999984" stroke-linecap="square" stroke-linejoin="bevel" d="M16.375 0L0 20.875L8.625 23.5L24.125 16.25L22.875 1.625C22.875 1.625 20.7083 1.08333 16.375 0Z" sodipodi:nodetypes="cccccc"/><path id="shape81" transform="translate(206.651965858776, 190.034955772613)" fill="none" stroke="#000000" stroke-width="2.04999999999984" stroke-linecap="square" stroke-linejoin="bevel" d="M19.799 0L0 20.8597L8.48528 24.2184L9.72272 30.7591L25.2791 28.8146L36.2392 11.4905L24.7487 9.19239C24.7487 9.19239 23.0988 6.12826 19.799 0Z" sodipodi:nodetypes="cccccccc"/><path id="shape82" transform="translate(176.953480199508, 175.716043275036)" fill="none" stroke="#000000" stroke-width="2.04999999999984" stroke-linecap="square" stroke-linejoin="bevel" d="M0 4.41942L4.59619 11.6673L14.6725 13.7886L23.5113 7.95495L21.9203 0.353553L11.844 1.94454L3.53553 0C3.53553 0 2.35702 1.47314 0 4.41942Z" sodipodi:nodetypes="cccccccc"/><path id="shape83" transform="translate(143.000009080063, 146.000009270554)" fill="none" stroke="#000000" stroke-width="2.04999999999984" stroke-linecap="square" stroke-linejoin="bevel" d="M26 0L0 34.25L15.25 38.5L23.75 35.25L36 12.5C36 12.5 32.6667 8.33333 26 0Z" sodipodi:nodetypes="cccccc"/><path id="shape84" transform="translate(130.500008286351, 188.500011969174)" fill="none" stroke="#000000" stroke-width="2.04999999999984" stroke-linecap="square" stroke-linejoin="bevel" d="M28.75 10L16.25 23.25L7.5 23L0 16.5L1.25 3.75L8.75 0L16.25 11.25L24.25 5.25C24.25 5.25 25.75 6.83333 28.75 10Z" sodipodi:nodetypes="ccccccccc"/><path id="shape85" transform="translate(88.5000056194795, 196.750012493024)" fill="none" stroke="#000000" stroke-width="2.04999999999984" stroke-linecap="square" stroke-linejoin="bevel" d="M28.75 3.75L28.5 15.75L20.5 21.5L7.75 20L0 10.5L15.5 0C15.5 0 19.9167 1.25 28.75 3.75Z" sodipodi:nodetypes="ccccccc"/><path id="shape86" transform="translate(74.5000047305223, 181.000011492947)" fill="none" stroke="#000000" stroke-width="2.04999999999984" stroke-linecap="square" stroke-linejoin="bevel" d="M21.75 5L8.75 12.75L0 10.75L8 0C8.16667 0.166667 12.75 1.83333 21.75 5Z" sodipodi:nodetypes="ccccc"/><path id="shape87" transform="translate(110.250007000538, 156.000009905523)" fill="none" stroke="#000000" stroke-width="2.04999999999984" stroke-linecap="square" stroke-linejoin="bevel" d="M0 2L5.5 28.75L22 27L24.75 0C24.75 0 16.5 0.666667 0 2Z" sodipodi:nodetypes="ccccc"/><path id="shape88" transform="translate(193.250012270784, 163.250010365876)" fill="none" stroke="#000000" stroke-width="2.04999999999984" stroke-linecap="square" stroke-linejoin="bevel" d="M19 0.5L15.25 8.75L5.5 9.75L0 0C0 0 6.33333 0.166667 19 0.5Z" sodipodi:nodetypes="ccccc"/><path id="shape89" transform="translate(214.25001360422, 160.750010207134)" fill="none" stroke="#000000" stroke-width="2.04999999999984" stroke-linecap="square" stroke-linejoin="bevel" d="M0 0L2.25 12.5L7.75 16.25L17 15.75L18 7.5C18 7.5 12 5 0 0Z" sodipodi:nodetypes="cccccc"/><path id="shape90" transform="translate(190.750012112042, 123.000007810124)" fill="none" stroke="#000000" stroke-width="2.04999999999984" stroke-linecap="square" stroke-linejoin="bevel" d="M0 0L1 11.25L7.25 16.75L18.75 15.75L27.5 7L26.25 2C26.25 2 17.5 1.33333 0 0Z" sodipodi:nodetypes="ccccccc"/><path id="shape91" transform="translate(153.250009730907, 123.750007857747)" fill="none" stroke="#000000" stroke-width="2.04999999999984" stroke-linecap="square" stroke-linejoin="bevel" d="M16.5 0L18 12.25L6.75 16L0 12L0.75 2.25C0.75 2.25 6 1.5 16.5 0Z" sodipodi:nodetypes="cccccc"/><path id="shape92" transform="translate(77.0000048892647, 156.000009905523)" fill="none" stroke="#000000" stroke-width="2.04999999999984" stroke-linecap="square" stroke-linejoin="bevel" d="M3 0L20.75 10.5L12.25 17.25L0 8C0 8 1 5.33333 3 0Z" sodipodi:nodetypes="ccccc"/><path id="shape93" transform="translate(43.7500027779913, 180.250011445324)" fill="none" stroke="#000000" stroke-width="2.04999999999984" stroke-linecap="square" stroke-linejoin="bevel" d="M19.25 5.25L8.25 19L0 13.5L11.75 0C12.0833 0.166667 14.5833 1.91667 19.25 5.25Z" sodipodi:nodetypes="ccccc"/><path id="shape94" transform="translate(39.250002492255, 152.750009699158)" fill="none" stroke="#000000" stroke-width="2.04999999999984" stroke-linecap="square" stroke-linejoin="bevel" d="M0 23.25L12 23.75L18.5 17.75L17 7L0.25 0C0.25 0 0.166667 7.75 0 23.25Z" sodipodi:nodetypes="cccccc"/><path id="shape95" transform="translate(88.2500056036053, 119.500007587885)" fill="none" stroke="#000000" stroke-width="2.04999999999984" stroke-linecap="square" stroke-linejoin="bevel" d="M12 0L0 15.75L0.5 22.25L6.75 22.5L24.75 8.5C24.75 8.5 20.5 5.66667 12 0Z" sodipodi:nodetypes="cccccc"/><path id="shape96" transform="translate(427.250026834413, 158.750009970657)" fill="none" stroke="#000000" stroke-width="1.95999999999984" stroke-linecap="square" stroke-linejoin="bevel" d="M0 1.75L11.75 12L25.5 12L26.25 5.75L13.75 0C13.75 0 9.16667 0.583333 0 1.75Z" sodipodi:nodetypes="cccccc"/><path id="shape97" transform="translate(383.750024102296, 124.500007819507)" fill="none" stroke="#000000" stroke-width="1.95999999999984" stroke-linecap="square" stroke-linejoin="bevel" d="M26 5.25L17.75 13.5L6.75 13.25L0 5L9.5 0C9.5 0 15 1.75 26 5.25Z" sodipodi:nodetypes="cccccc"/><path id="shape98" transform="translate(346.249998928537, 125.749999610869)" fill="none" stroke="#000000" stroke-width="1.95999999999984" stroke-linecap="square" stroke-linejoin="bevel" d="M22.5 0L22.25 9.75L2.25 9.5L0 1.25C0 1.25 7.5 0.833333 22.5 0Z" sodipodi:nodetypes="ccccc"/><path id="shape99" transform="translate(424.749998685621, 121.499999624021)" fill="none" stroke="#000000" stroke-width="1.95999999999984" stroke-linecap="square" stroke-linejoin="bevel" d="M0 0L0.5 7.75L7.75 11.5L25.5 10.25C25.5 10.25 17 6.83333 0 0Z" sodipodi:nodetypes="ccccc"/><path id="shape100" transform="translate(370.500018349385, 79.0000039125544)" fill="none" stroke="#000000" stroke-width="1.95999999999984" stroke-linecap="square" stroke-linejoin="bevel" d="M11 0L22.5 23L9.75 23.75L0.25 16.5L0 5.75C0.166667 5.75 3.83333 3.83333 11 0Z" sodipodi:nodetypes="cccccc"/><path id="shape101" transform="translate(401.500019884691, 80.2500039744619)" fill="none" stroke="#000000" stroke-width="1.95999999999984" stroke-linecap="square" stroke-linejoin="bevel" d="M0 3.75L10.25 21.25L21.25 21.75L33.75 7.75L31.5 5L17.5 8L3.25 0C3.25 0 2.16667 1.25 0 3.75Z" sodipodi:nodetypes="cccccccc"/><path id="shape102" transform="translate(449.500022261939, 87.750004345907)" fill="none" stroke="#000000" stroke-width="1.95999999999984" stroke-linecap="square" stroke-linejoin="bevel" d="M0 0.25L0.5 8.5L14.25 11.75L16 0C16 0 10.6667 0.0833333 0 0.25Z" sodipodi:nodetypes="ccccc"/><path id="shape103" transform="translate(413.250020466622, 37.2500018448437)" fill="none" stroke="#000000" stroke-width="1.95999999999984" stroke-linecap="square" stroke-linejoin="bevel" d="M39 6.5L30 35.75L15 35.25L14.5 23.5L0 16.5L11.5 0L23.25 6.75C23.4167 6.75 28.6667 6.66667 39 6.5Z" sodipodi:nodetypes="cccccccc"/><path id="shape104" transform="translate(462.000022881015, 48.2500023896298)" fill="none" stroke="#000000" stroke-width="1.95999999999984" stroke-linecap="square" stroke-linejoin="bevel" d="M0 3.25L10.25 14.25L24.5 15.5L31 5L25.25 0C24.9167 0 16.5 1.08333 0 3.25Z" sodipodi:nodetypes="cccccc"/><path id="shape105" transform="translate(30.7500019191094, 119.2500074424)" fill="none" stroke="#000000" stroke-width="1.95999999999984" stroke-linecap="square" stroke-linejoin="bevel" d="M26.75 7.25L8.5 20.25L0 11.75L15.25 0C15.25 0 19.0833 2.41667 26.75 7.25Z" sodipodi:nodetypes="ccccc"/><path id="shape106" transform="translate(120.000007489207, 102.000006365826)" fill="none" stroke="#000000" stroke-width="1.95999999999984" stroke-linecap="square" stroke-linejoin="bevel" d="M0 4.25L9.75 0L22 1.75L13 15.5C12.5 15.3333 8.16667 11.5833 0 4.25Z" sodipodi:nodetypes="ccccc"/><path id="shape107" transform="translate(174.000010859351, 87.7500054764829)" fill="none" stroke="#000000" stroke-width="1.95999999999984" stroke-linecap="square" stroke-linejoin="bevel" d="M1.5 0L0 8L7 11.25L14 6.5L12.25 0.25C12.25 0.25 8.66667 0.166667 1.5 0Z" sodipodi:nodetypes="cccccc"/><path id="shape108" transform="translate(53.7499998123209, 87.4999996944759)" fill="none" stroke="#000000" stroke-width="1.95999999999984" stroke-linecap="square" stroke-linejoin="bevel" d="M22 0L0 0L0.5 6L5.5 8.25L8.5 12.5L18 13L23.5 8C23.1667 7.66667 22.6667 5 22 0Z" sodipodi:nodetypes="cccccccc"/><path id="shape109" transform="translate(79.9999997206637, 89.2499996883654)" fill="none" stroke="#000000" stroke-width="1.95999999999984" stroke-linecap="square" stroke-linejoin="bevel" d="M0 0L0.5 7.5L48.25 5.75L48 0.25C48 0.416667 32 0.333333 0 0Z" sodipodi:nodetypes="ccccc"/><path id="shape110" transform="translate(29.7499998961218, 50.2499998245419)" fill="none" stroke="#000000" stroke-width="1.95999999999984" stroke-linecap="square" stroke-linejoin="bevel" d="M31 0L32.75 6.25L10 11.75L0 8.5L0 3.25C0 3.25 10.3333 2.16667 31 0Z" sodipodi:nodetypes="cccccc"/><path id="shape111" transform="translate(64.249999775658, 45.7499998402546)" fill="none" stroke="#000000" stroke-width="1.95999999999984" stroke-linecap="square" stroke-linejoin="bevel" d="M8.25 0L0 9.25L3.25 16.5L13.5 23.25L28 22.25L34.75 15.5L35 1.75C35 1.75 26.0833 1.16667 8.25 0Z" sodipodi:nodetypes="cccccccc"/><path id="shape112" transform="translate(102.249999642973, 43.2499998489838)" fill="none" stroke="#000000" stroke-width="1.95999999999984" stroke-linecap="square" stroke-linejoin="bevel" d="M17.75 0.5L0 14.25L0.5 26.25L13.25 41.75L30.5 45L42.75 43.25L51.5 34.25L51.25 17.5L38 4.5L30 0C30 0 25.9167 0.166667 17.75 0.5Z" sodipodi:nodetypes="ccccccccccc"/><path id="shape113" transform="translate(171.499999401173, 56.4999998027187)" fill="none" stroke="#000000" stroke-width="1.95999999999984" stroke-linecap="square" stroke-linejoin="bevel" d="M0 0L1 8.75L20.5 8.5L21 1.25C21 1.25 14 0.833333 0 0Z" sodipodi:nodetypes="ccccc"/><path id="shape114" transform="translate(236.500003361421, 162.250002306091)" fill="none" stroke="#000000" stroke-width="1.95999999999984" stroke-linecap="square" stroke-linejoin="bevel" d="M11 0L10 8L6.25 9L0 5.5L1.25 0.25C1.25 0.25 4.5 0.166667 11 0Z" sodipodi:nodetypes="cccccc"/><path id="shape115" transform="translate(166.170087833625, 485.782341879577)" fill="none" stroke="#000000" stroke-width="1.95999999999984" stroke-linecap="square" stroke-linejoin="bevel" d="M0 6.71751L25.4558 0L26.5165 6.01041L18.3848 14.1421L6.36396 14.4957C6.36396 14.4957 4.24264 11.903 0 6.71751Z" sodipodi:nodetypes="cccccc"/><path id="shape116" transform="translate(201.525425670567, 479.064827690558)" fill="none" stroke="#000000" stroke-width="1.95999999999984" stroke-linecap="square" stroke-linejoin="bevel" d="M0 7.42462L0.353553 18.7383L8.83883 18.3848L9.89949 6.71751L5.65685 0C5.65685 0 3.77124 2.47487 0 7.42462Z" sodipodi:nodetypes="cccccc"/><path id="shape117" transform="translate(236.527210129139, 486.843002014685)" fill="none" stroke="#000000" stroke-width="1.95999999999984" stroke-linecap="square" stroke-linejoin="bevel" d="M8.48528 0L0.353553 2.12132L0 8.83883L7.07107 9.89949L10.253 7.07107C10.253 6.83537 9.66379 4.47834 8.48528 0Z" sodipodi:nodetypes="cccccc"/><path id="shape118" transform="translate(148.492418915154, 513.005952014021)" fill="none" stroke="#000000" stroke-width="1.95999999999984" stroke-linecap="square" stroke-linejoin="bevel" d="M0 3.18198L0 18.3848L14.1421 28.6378L25.1023 29.3449L29.3449 22.6274L27.5772 15.9099L10.9602 0C10.9602 0 7.30677 1.06066 0 3.18198Z" sodipodi:nodetypes="cccccccc"/><path id="shape119" transform="translate(66.8215885118195, 518.309252689563)" fill="none" stroke="#000000" stroke-width="1.95999999999984" stroke-linecap="square" stroke-linejoin="bevel" d="M34.6482 6.36396L26.1629 21.9203L5.65685 27.2236L0 10.9602L29.6985 0C29.6985 0 31.3484 2.12132 34.6482 6.36396Z" sodipodi:nodetypes="cccccc"/><path id="shape120" transform="translate(33.9411243234638, 520.07701958141)" fill="none" stroke="#000000" stroke-width="1.95999999999984" stroke-linecap="square" stroke-linejoin="bevel" d="M23.6881 3.88909L14.1421 14.8492L1.06066 15.9099L0 9.19239L12.0208 0C12.0208 0 15.9099 1.29636 23.6881 3.88909Z" sodipodi:nodetypes="cccccc"/><path id="shape121" transform="translate(91.2167716193091, 550.48261012118)" fill="none" stroke="#000000" stroke-width="1.95999999999984" stroke-linecap="square" stroke-linejoin="bevel" d="M20.8596 3.88909L21.9203 20.8596L9.54594 28.9914L1.06066 25.8094L0 0C0 0 6.95322 1.29636 20.8596 3.88909Z" sodipodi:nodetypes="cccccc"/><path id="shape122" transform="translate(67.5286952685583, 564.978298634325)" fill="none" stroke="#000000" stroke-width="1.95999999999984" stroke-linecap="square" stroke-linejoin="bevel" d="M19.0919 0L18.3848 9.54594L0.353553 10.6066L0 2.12132C0 2.12132 6.36396 1.41421 19.0919 0Z" sodipodi:nodetypes="ccccc"/><path id="shape123" transform="translate(137.178710807333, 550.48261012118)" fill="none" stroke="#000000" stroke-width="1.95999999999984" stroke-linecap="square" stroke-linejoin="bevel" d="M0 2.12132L6.01041 9.89949L13.0815 9.54594L18.0312 3.18198L13.0815 0C13.0815 0 8.72098 0.707107 0 2.12132Z" sodipodi:nodetypes="cccccc"/><path id="shape124" transform="translate(187.38329053579, 513.005952014021)" fill="none" stroke="#000000" stroke-width="1.95999999999984" stroke-linecap="square" stroke-linejoin="bevel" d="M14.1421 0L0 15.5563L0.707107 23.3345L8.13173 31.4663L30.4056 26.5165L32.1734 16.617C32.1734 16.617 26.1629 11.078 14.1421 0Z" sodipodi:nodetypes="ccccccc"/><path id="shape125" transform="translate(231.577462831967, 514.420165527499)" fill="none" stroke="#000000" stroke-width="1.95999999999984" stroke-linecap="square" stroke-linejoin="bevel" d="M6.01041 0L0 7.07107L7.07107 27.9307L16.617 21.9203L14.4957 9.54594C14.4957 9.54594 11.6673 6.36396 6.01041 0Z" sodipodi:nodetypes="cccccc"/><path id="shape126" transform="translate(32.8804641883556, 592.20190876877)" fill="none" stroke="#000000" stroke-width="1.95999999999984" stroke-linecap="square" stroke-linejoin="bevel" d="M17.3241 1.06066L18.7383 10.6066L14.4957 14.4957L6.01041 15.2028L0 9.54594L0 0C0 0 5.77471 0.353553 17.3241 1.06066Z" sodipodi:nodetypes="ccccccc"/><path id="shape127" transform="translate(98.0000000913278, 583.25000054354)" fill="none" stroke="#000000" stroke-width="1.95999999999984" stroke-linecap="square" stroke-linejoin="bevel" d="M1.5 11L20.75 29.75L36.5 29.5L52 17.25L51.5 7.75L32 5.25L21.75 6L11.75 0L0 1C0 1 0.5 4.33333 1.5 11Z" sodipodi:nodetypes="cccccccccc"/><path id="shape128" transform="translate(215.500014953332, 558.500038753763)" fill="none" stroke="#000000" stroke-width="1.95999999999984" stroke-linecap="square" stroke-linejoin="bevel" d="M9.5 0L9.25 8.5L6 11.25L1.25 10L0 1C0 1 3.16667 0.666667 9.5 0Z" sodipodi:nodetypes="cccccc"/><path id="shape129" transform="translate(225.000015612527, 574.250039846639)" fill="none" stroke="#000000" stroke-width="1.95999999999984" stroke-linecap="square" stroke-linejoin="bevel" d="M5.75 0L0 2.25L0.5 8.25L6.25 12.5L13.75 12L17.75 10L16 0.5C16 0.5 12.5833 0.333333 5.75 0Z" sodipodi:nodetypes="cccccccc"/><path id="shape130" transform="translate(270.000018735033, 516.250035822077)" fill="none" stroke="#000000" stroke-width="1.95999999999984" stroke-linecap="square" stroke-linejoin="bevel" d="M17 1.5L14.75 18.5L8.5 24.25L3 23.75L0 17.5L4 12.75L3.5 0C3.5 0 8 0.5 17 1.5Z" sodipodi:nodetypes="cccccccc"/><path id="shape131" transform="translate(307.500021337121, 518.250035960855)" fill="none" stroke="#000000" stroke-width="1.95999999999984" stroke-linecap="square" stroke-linejoin="bevel" d="M7 0L0 8.75L9.75 16.75L22.75 20.25L24.5 18C24 16.8333 18.1667 10.8333 7 0Z" sodipodi:nodetypes="cccccc"/><path id="shape132" transform="translate(281.250005434835, 479.75000927062)" fill="none" stroke="#000000" stroke-width="1.95999999999984" stroke-linecap="square" stroke-linejoin="bevel" d="M37 2.25L37.5 14.75L32 19.5L8.5 20L0 13.75L3.25 0L14 7L24.5 7.25L30 0.75C29.8333 0.75 32.1667 1.25 37 2.25Z" sodipodi:nodetypes="cccccccccc"/><path id="shape133" transform="translate(326.000006299577, 481.750009309268)" fill="none" stroke="#000000" stroke-width="1.95999999999984" stroke-linecap="square" stroke-linejoin="bevel" d="M6 0L0 5L2.25 12.25L16 19.5L26.25 19.75L25.75 13C25.4167 12.8333 18.8333 8.5 6 0Z" sodipodi:nodetypes="ccccccc"/><path id="shape134" transform="translate(353.000006821321, 521.750010082222)" fill="none" stroke="#000000" stroke-width="1.95999999999984" stroke-linecap="square" stroke-linejoin="bevel" d="M0 0.75L0.25 12.25L6 21.5L9.75 21L16.5 10.5L16.25 0C16.25 0 10.8333 0.25 0 0.75Z" sodipodi:nodetypes="ccccccc"/><path id="shape135" transform="translate(384.750007434854, 515.750009966279)" fill="none" stroke="#000000" stroke-width="1.95999999999984" stroke-linecap="square" stroke-linejoin="bevel" d="M13.25 0L0 25.25L8.75 26.5L20.5 20L22.5 9.25C22.3333 9.08333 19.25 6 13.25 0Z" sodipodi:nodetypes="cccccc"/><path id="shape136" transform="translate(389.500007526642, 477.25000922231)" fill="none" stroke="#000000" stroke-width="1.95999999999984" stroke-linecap="square" stroke-linejoin="bevel" d="M0.5 0L20 0L59 18.25L58.5 27.75L56.25 33.5L38 40.5L31.5 36.5L10.25 30.25L10.25 14.75L0 7.5C0 7.5 0.166667 5 0.5 0Z" sodipodi:nodetypes="ccccccccccc"/><path id="shape137" transform="translate(406.500007855147, 436.750008439694)" fill="none" stroke="#000000" stroke-width="1.95999999999984" stroke-linecap="square" stroke-linejoin="bevel" d="M2.25 0L0 6.5L16 13L19.75 6.25L14.75 1.75C14.75 1.75 10.5833 1.16667 2.25 0Z" sodipodi:nodetypes="cccccc"/><path id="shape138" transform="translate(445.750008613609, 418.500008087034)" fill="none" stroke="#000000" stroke-width="1.95999999999984" stroke-linecap="square" stroke-linejoin="bevel" d="M10.25 0L0 8L0.75 17L11.5 18L18.75 16.25L25 5C25 5 20.0833 3.33333 10.25 0Z" sodipodi:nodetypes="ccccccc"/><path id="shape139" transform="translate(426.000008231963, 449.000008676411)" fill="none" stroke="#000000" stroke-width="1.95999999999984" stroke-linecap="square" stroke-linejoin="bevel" d="M13.75 0L0 8L4.5 15.5L4 21.5L18.25 23.5L23.75 20.5L24 11.75C23.8333 11.75 20.4167 7.83333 13.75 0Z" sodipodi:nodetypes="cccccccc"/><path id="shape140" transform="translate(386.250007463839, 451.25000871989)" fill="none" stroke="#000000" stroke-width="1.95999999999984" stroke-linecap="square" stroke-linejoin="bevel" d="M23 0L0 1.25L4.75 19.75L24.75 10.75C24.4167 10.75 23.8333 7.16667 23 0Z" sodipodi:nodetypes="ccccc"/><path id="shape141" transform="translate(464.922718208268, 448.305708508049)" fill="none" stroke="#000000" stroke-width="1.95999999999984" stroke-linecap="square" stroke-linejoin="bevel" d="M0 2.82843L9.8995 23.3345L23.3345 17.6777L9.54594 0C9.54594 0 6.36396 0.942809 0 2.82843Z" sodipodi:nodetypes="ccccc"/><path id="shape142" transform="translate(465.983378401899, 480.479067714857)" fill="none" stroke="#000000" stroke-width="1.95999999999984" stroke-linecap="square" stroke-linejoin="bevel" d="M8.83883 0L0 0L7.07107 13.435L16.2635 15.9099L17.3241 3.53553C17.3241 3.53553 14.4957 2.35702 8.83883 0Z" sodipodi:nodetypes="cccccc"/><path id="shape143" transform="translate(427.446058033305, 522.198368664344)" fill="none" stroke="#000000" stroke-width="1.95999999999984" stroke-linecap="square" stroke-linejoin="bevel" d="M7.42462 0L22.2739 8.83883L24.0416 17.6777L14.1421 17.6777L0 3.88909C0 3.88909 2.47487 2.59272 7.42462 0Z" sodipodi:nodetypes="cccccc"/><path id="shape144" transform="translate(465.983378401899, 520.784155072836)" fill="none" stroke="#000000" stroke-width="1.95999999999984" stroke-linecap="square" stroke-linejoin="bevel" d="M14.8492 0L0 2.82843L0.353553 18.3848L7.42462 18.0312L15.9099 24.7487L22.2739 24.7487L21.9203 3.88909C21.9203 3.88909 19.5633 2.59272 14.8492 0Z" sodipodi:nodetypes="cccccccc"/><path id="shape145" transform="translate(419.500015821773, 551.500020800258)" fill="none" stroke="#000000" stroke-width="1.95999999999984" stroke-linecap="square" stroke-linejoin="bevel" d="M13.25 0L13.5 10.75L1.25 9.25L0 1.75L10.5 0.75C10.6667 0.916667 11.5833 0.666667 13.25 0Z" sodipodi:nodetypes="cccccc"/><path id="shape146" transform="translate(447.500016877815, 559.500021101984)" fill="none" stroke="#000000" stroke-width="1.95999999999984" stroke-linecap="square" stroke-linejoin="bevel" d="M9.75 0L0 5.5L7.25 14.75L12.25 13.5L13.5 3C13.3333 3 12.0833 2 9.75 0Z" sodipodi:nodetypes="cccccc"/><path id="shape147" transform="translate(375.750008221104, 570.250012476605)" fill="none" stroke="#000000" stroke-width="1.95999999999984" stroke-linecap="square" stroke-linejoin="bevel" d="M12.75 0L18.75 0.75L20 11.25L14 16L8 16L0 5.75L9 5.25C9.33333 5.25 10.5833 3.5 12.75 0Z" sodipodi:nodetypes="cccccccc"/><path id="shape148" transform="translate(347.000007592077, 591.750012947008)" fill="none" stroke="#000000" stroke-width="1.95999999999984" stroke-linecap="square" stroke-linejoin="bevel" d="M18 3.75L11.5 16L4.25 15.5L0 8.5L8.5 0C8.66667 0 11.8333 1.25 18 3.75Z" sodipodi:nodetypes="cccccc"/><path id="shape149" transform="translate(283.75001268287, 559.000024985812)" fill="none" stroke="#000000" stroke-width="1.95999999999984" stroke-linecap="square" stroke-linejoin="bevel" d="M0 0L20.25 0.5L21.75 9.75L14 16.25L1.75 10C1.75 10 1.16667 6.66667 0 0Z" sodipodi:nodetypes="cccccc"/><path id="shape150" transform="translate(281.000012559952, 599.000026773706)" fill="none" stroke="#000000" stroke-width="1.95999999999984" stroke-linecap="square" stroke-linejoin="bevel" d="M0 0L31.75 0.75L18 13L32 12.75L25 37.25L19.5 36.75L13.25 16.25L6.75 17C6.91667 17 4.66667 11.3333 0 0Z" sodipodi:nodetypes="ccccccccc"/><path id="shape151" transform="translate(214.250009576405, 608.250027187156)" fill="none" stroke="#000000" stroke-width="1.95999999999984" stroke-linecap="square" stroke-linejoin="bevel" d="M0 3.75L9.5 0L16.25 6.5L14.75 12.75L9 18.75L3 16.25C3 16.25 2 12.0833 0 3.75Z" sodipodi:nodetypes="ccccccc"/><path id="shape152" transform="translate(200.250008950642, 605.750027075413)" fill="none" stroke="#000000" stroke-width="1.95999999999984" stroke-linecap="square" stroke-linejoin="bevel" d="M0 1.5L7.5 0L11.25 6L3.5 11C3 10.6667 1.83333 7.5 0 1.5Z" sodipodi:nodetypes="ccccc"/><path id="shape153" transform="translate(420.750012143151, 585.500016897956)" fill="none" stroke="#000000" stroke-width="1.95999999999984" stroke-linecap="square" stroke-linejoin="bevel" d="M8 0L33.75 0.25L32 19.25L25.75 30.25L18 33.25L10.5 33L1.75 24.5L0 11.5C0 11.5 2.66667 7.66667 8 0Z" sodipodi:nodetypes="ccccccccc"/><path id="shape154" transform="translate(466.000013449099, 593.000017114412)" fill="none" stroke="#000000" stroke-width="1.95999999999984" stroke-linecap="square" stroke-linejoin="bevel" d="M7 0L0 6.5L2.25 13.5L14 13.25L14.5 3.25C14.5 3.25 12 2.16667 7 0Z" sodipodi:nodetypes="cccccc"/><path id="shape155" transform="translate(444.593396997386, 359.210251570055)" fill="none" stroke="#000000" stroke-width="1.95999999999984" stroke-linecap="square" stroke-linejoin="bevel" d="M0 0.707107L10.6066 0L20.8597 10.0763L20.6829 17.3241L10.4298 16.9706L1.41421 7.07107C1.41421 7.07107 0.942809 4.94975 0 0.707107Z" sodipodi:nodetypes="ccccccc"/><path id="shape156" transform="translate(422.849863068687, 359.740581665877)" fill="none" stroke="#000000" stroke-width="1.95999999999984" stroke-linecap="square" stroke-linejoin="bevel" d="M11.6673 0L18.9151 7.42462L16.2635 10.7834L8.13173 10.6066L0 7.6014L0.353553 0.353553C0.353553 0.353553 4.12479 0.235702 11.6673 0Z" sodipodi:nodetypes="ccccccc"/><path id="shape157" transform="translate(415.24845187632, 328.451095609281)" fill="none" stroke="#000000" stroke-width="1.95999999999984" stroke-linecap="square" stroke-linejoin="bevel" d="M0 3.71231L12.5511 14.3189L19.799 14.8492L24.3952 10.9602L24.7487 3.35876L17.3241 0C17.3241 0 11.5494 1.23744 0 3.71231Z" sodipodi:nodetypes="ccccccc"/><path id="shape158" transform="translate(444.063076203473, 334.638297473397)" fill="none" stroke="#000000" stroke-width="1.95999999999984" stroke-linecap="square" stroke-linejoin="bevel" d="M5.12652 0L12.3744 0.353553L18.5616 6.36396L18.9151 15.9099L14.1421 20.3617L6.36396 17.6777L0 10.7834L0.53033 4.24264C0.53033 4.24264 2.06239 2.82843 5.12652 0Z" sodipodi:nodetypes="ccccccccc"/><path id="shape159" transform="translate(438.582998431853, 309.005675638404)" fill="none" stroke="#000000" stroke-width="1.95999999999984" stroke-linecap="square" stroke-linejoin="bevel" d="M12.1976 19.6222L24.0416 19.9758L28.6378 12.1976L28.1075 0L19.9758 0L14.3189 2.47487L0 2.2981L0.707107 6.36396C0.707107 6.48181 4.53727 10.9012 12.1976 19.6222Z" sodipodi:nodetypes="ccccccccc"/><path id="shape160" transform="translate(445.875033521543, 282.750021257564)" fill="none" stroke="#000000" stroke-width="1.95999999999984" stroke-linecap="square" stroke-linejoin="bevel" d="M8.375 4.875L18.625 4.625L21.25 8.625L21.125 14.375L17.25 18.625L9.125 18.5L0.25 6.5L0 0L4.25 0.125C4.25 0.125 5.625 1.70833 8.375 4.875Z" sodipodi:nodetypes="cccccccccc"/><path id="shape161" transform="translate(427.500032140083, 284.250021370336)" fill="none" stroke="#000000" stroke-width="1.95999999999984" stroke-linecap="square" stroke-linejoin="bevel" d="M0 5.125L0.625 14.625L9.625 23.75L17 24.25L21.75 19.75L22.375 13.625L14.125 1L6 0C6 0 4 1.70833 0 5.125Z" sodipodi:nodetypes="ccccccccc"/><path id="shape162" transform="translate(449.750004173552, 255.625002372127)" fill="none" stroke="#000000" stroke-width="1.95999999999984" stroke-linecap="square" stroke-linejoin="bevel" d="M6.5 0L1.375 6.125L0 11.875L0 24L5.5 28.875L10.25 29.125L17.375 22.375L15.875 5.75C15.875 5.75 12.75 3.83333 6.5 0Z" sodipodi:nodetypes="ccccccccc"/><path id="shape163" transform="translate(414.011038926588, 298.222298321586)" fill="none" stroke="#000000" stroke-width="1.95999999999984" stroke-linecap="square" stroke-linejoin="bevel" d="M9.72272 0L25.2791 20.3293L23.6881 25.1023L18.5616 20.1525L22.2739 28.461L0 17.3241C0 17.3241 3.24091 11.5494 9.72272 0Z" sodipodi:nodetypes="ccccccc"/><path id="shape164" transform="translate(468.988555291699, 377.948560578082)" fill="none" stroke="#000000" stroke-width="1.95999999999984" stroke-linecap="square" stroke-linejoin="bevel" d="M0 13.2583L7.24784 13.2583L7.42462 8.3085L0 0C0 0 0 4.41942 0 13.2583Z" sodipodi:nodetypes="ccccc"/><path id="shape165" transform="translate(468.458225225406, 352.492717396023)" fill="none" stroke="#000000" stroke-width="1.95999999999984" stroke-linecap="square" stroke-linejoin="bevel" d="M0 21.5668L0.176777 0L5.12652 8.83883L4.94975 20.3293C4.94975 20.3293 3.29983 20.7418 0 21.5668Z" sodipodi:nodetypes="ccccc"/><path id="shape166" transform="translate(470.579545490578, 297.33839050156)" fill="none" stroke="#000000" stroke-width="1.95999999999984" stroke-linecap="square" stroke-linejoin="bevel" d="M0 21.0364L3.88909 17.3241L4.24264 3.35876L0 0C0 0 0 7.01214 0 21.0364Z" sodipodi:nodetypes="ccccc"/><path id="shape167" transform="translate(469.518885357992, 276.8322946049)" fill="none" stroke="#000000" stroke-width="1.95999999999984" stroke-linecap="square" stroke-linejoin="bevel" d="M0 19.0919L1.59099 0L5.65685 8.83883L5.3033 19.2687C5.18545 19.2687 3.41768 19.2097 0 19.0919Z" sodipodi:nodetypes="ccccc"/><path id="shape168" transform="translate(470.750006774265, 240.250003457285)" fill="none" stroke="#000000" stroke-width="1.95999999999984" stroke-linecap="square" stroke-linejoin="bevel" d="M0.5 0L0 27.375L4.125 27.125L4.75 0.625C4.75 0.625 3.33333 0.416667 0.5 0Z" sodipodi:nodetypes="ccccc"/><path id="shape169" transform="translate(462.750015170009, 117.750003860116)" fill="none" stroke="#000000" stroke-width="1.95999999999984" stroke-linecap="square" stroke-linejoin="bevel" d="M22.25 0L29.25 12.75L20.5 24.75L10.5 20L0 20.25C0 20.25 7.41667 13.5 22.25 0Z" sodipodi:nodetypes="cccccc"/><path id="shape170" transform="translate(275.594869845077, 153.265395866377)" fill="none" stroke="#000000" stroke-width="1.95999999999984" stroke-linecap="square" stroke-linejoin="bevel" d="M0 3.71231L6.89429 0L9.72272 3.18198L5.48008 14.6725L2.2981 15.026L0 11.4905C0 11.4905 0 8.89776 0 3.71231Z" sodipodi:nodetypes="ccccccc"/><path id="shape171" transform="translate(264.988268055017, 155.033162831387)" fill="none" stroke="#000000" stroke-width="1.95999999999984" stroke-linecap="square" stroke-linejoin="bevel" d="M7.95495 0L8.3085 13.435L4.41942 13.2583L0 10.253L0.176777 6.01041C0.176777 6.01041 2.7695 4.00694 7.95495 0Z" sodipodi:nodetypes="cccccc"/><path id="shape172" transform="translate(256.679763319469, 135.587726216276)" fill="none" stroke="#000000" stroke-width="1.95999999999984" stroke-linecap="square" stroke-linejoin="bevel" d="M6.32024 0L0 6.89429L0.53033 12.1976L8.83883 16.4402L16.617 15.3796L17.6777 9.8995C17.6777 9.8995 13.8919 6.59966 6.32024 0Z" sodipodi:nodetypes="ccccccc"/><path id="shape173" transform="translate(280.191063954104, 130.814755410749)" fill="none" stroke="#000000" stroke-width="1.95999999999984" stroke-linecap="square" stroke-linejoin="bevel" d="M14.1421 0L6.89429 5.48008L7.6014 7.95495L0 13.435L1.23744 15.026L8.83883 14.1421L17.8544 9.19239L18.0312 3.35876C18.0312 3.35876 16.7349 2.23917 14.1421 0Z" sodipodi:nodetypes="ccccccccc"/><path id="shape174" transform="translate(289.383452172156, 134.173512644268)" fill="none" stroke="#000000" stroke-width="1.95999999999984" stroke-linecap="square" stroke-linejoin="bevel" d="M13.7886 0.883883L23.3345 12.1976L22.8042 15.5563L15.5563 17.5009L0 17.3241L0.176777 11.4905L8.83883 6.89429L10.0763 0C10.0763 0 11.3137 0.294628 13.7886 0.883883Z" sodipodi:nodetypes="ccccccccc"/><path id="shape175" transform="translate(267.286370025443, 114.374524739723)" fill="none" stroke="#000000" stroke-width="1.95999999999984" stroke-linecap="square" stroke-linejoin="bevel" d="M6.54074 0L28.9914 10.0763L29.1682 12.9047L23.3345 16.0867L0.707107 8.3085L0 2.65165C0 2.65165 2.18025 1.76777 6.54074 0Z" sodipodi:nodetypes="ccccccc"/><path id="shape176" transform="translate(295.570641985807, 109.424777146659)" fill="none" stroke="#000000" stroke-width="1.95999999999984" stroke-linecap="square" stroke-linejoin="bevel" d="M0 8.13173L7.24784 7.95495L9.19239 10.4298L12.7279 9.8995L20.5061 3.18198L21.2132 0L8.66206 0.53033L8.13173 3.0052L0 3.53553C0 3.53553 0 5.0676 0 8.13173Z" sodipodi:nodetypes="cccccccccc"/><path id="shape177" transform="translate(242.714408759876, 112.253204342696)" fill="none" stroke="#000000" stroke-width="1.95999999999984" stroke-linecap="square" stroke-linejoin="bevel" d="M6.18718 0L16.617 9.8995L16.7938 15.9099L8.83883 15.7331L0 6.71751L0.53033 0.883883C0.53033 0.883883 2.41595 0.589256 6.18718 0Z" sodipodi:nodetypes="ccccccc"/><path id="shape178" transform="translate(257.74042823882, 101.469825657807)" fill="none" stroke="#000000" stroke-width="1.95999999999984" stroke-linecap="square" stroke-linejoin="bevel" d="M0.707107 0L10.0763 1.41421L13.6118 4.94975L13.2583 8.3085L5.25957 10.7834L0 6.89429C0 6.89429 0.235702 4.59619 0.707107 0Z" sodipodi:nodetypes="ccccccc"/><path id="shape179" transform="translate(234.759457271024, 77.6049711912496)" fill="none" stroke="#000000" stroke-width="1.95999999999984" stroke-linecap="square" stroke-linejoin="bevel" d="M3.71231 0L0 14.1421L8.48528 24.3952L24.572 22.0971L28.2405 17.5009C27.0912 17.5009 18.9151 11.6673 3.71231 0Z" sodipodi:nodetypes="cccccc"/><path id="shape180" transform="translate(273.827107916277, 88.2115731763862)" fill="none" stroke="#000000" stroke-width="1.95999999999984" stroke-linecap="square" stroke-linejoin="bevel" d="M0.707107 0.176777L0 9.36917L4.59619 15.7331L11.3137 16.2635L17.8544 6.54074L18.0312 0C18.0312 0 12.2565 0.0589256 0.707107 0.176777Z" sodipodi:nodetypes="ccccccc"/><path id="shape181" transform="translate(306.530797370448, 87.1509129778725)" fill="none" stroke="#000000" stroke-width="1.95999999999984" stroke-linecap="square" stroke-linejoin="bevel" d="M0.176777 7.24784L0 12.5511L6.18718 16.0867L17.6777 16.2635L20.6829 10.9602L19.6222 0L12.1976 0.176777L7.95495 4.77297C7.95495 4.77297 5.36223 5.59793 0.176777 7.24784Z" sodipodi:nodetypes="ccccccccc"/><path id="shape182" transform="translate(328.627890883585, 80.7869532726187)" fill="none" stroke="#000000" stroke-width="1.95999999999984" stroke-linecap="square" stroke-linejoin="bevel" d="M0 0.883884L14.6725 0L14.4957 5.3033L10.9602 7.95495L3.71231 7.95495C3.71231 7.95495 2.47487 5.59793 0 0.883884Z" sodipodi:nodetypes="cccccc"/><path id="shape183" transform="translate(345.421677668921, 59.5737489121937)" fill="none" stroke="#000000" stroke-width="1.95999999999984" stroke-linecap="square" stroke-linejoin="bevel" d="M2.65165 0.353553L12.5511 0L16.0867 4.94975L15.9099 15.026L13.2583 17.1473L4.59619 17.3241L0 13.6118L0 2.2981C0 2.2981 0.883884 1.64992 2.65165 0.353553Z" sodipodi:nodetypes="ccccccccc"/><path id="shape184" transform="translate(295.747424124926, 57.8059818821582)" fill="none" stroke="#000000" stroke-width="1.95999999999984" stroke-linecap="square" stroke-linejoin="bevel" d="M6.18718 0L25.6326 2.82843L26.6933 7.6014L22.2739 9.54594L4.94975 10.7834L0 7.6014C0 7.6014 2.06239 5.0676 6.18718 0Z" sodipodi:nodetypes="ccccccc"/><path id="shape185" transform="translate(366.988429623501, 50.3813595581395)" fill="none" stroke="#000000" stroke-width="1.95999999999984" stroke-linecap="square" stroke-linejoin="bevel" d="M0 15.9099L8.83884 10.6066L13.7886 9.8995L25.4558 0L26.3397 6.01041L17.3241 13.7886L12.9047 14.6725L4.24264 20.6829L0.353553 21.0364C0.353553 21.0364 0.235702 19.3276 0 15.9099Z" sodipodi:nodetypes="cccccccccc"/><path id="shape186" transform="translate(255.619108494982, 58.1595343671155)" fill="none" stroke="#000000" stroke-width="1.95999999999984" stroke-linecap="square" stroke-linejoin="bevel" d="M1.23744 0.353553L19.0919 0L24.572 4.41942L23.3345 9.54594L16.9706 14.1421L7.38089 13.7886L0 9.01561C0 8.77991 0.412479 5.89256 1.23744 0.353553Z" sodipodi:nodetypes="cccccccc"/><path id="shape187" transform="translate(217.788894651326, 50.7349129585475)" fill="none" stroke="#000000" stroke-width="1.95999999999984" stroke-linecap="square" stroke-linejoin="bevel" d="M7.24784 0.353553L27.5772 0L33.0572 5.48008L33.0572 17.8544L26.8701 24.0416L7.6014 24.9255L0.883884 20.5061L0 8.13173C0 8.13173 2.41595 5.539 7.24784 0.353553Z" sodipodi:nodetypes="ccccccccc"/><path id="shape188" transform="translate(197.989904228478, 53.7401168620155)" fill="none" stroke="#000000" stroke-width="1.95999999999984" stroke-linecap="square" stroke-linejoin="bevel" d="M0 1.06066L8.3085 0L18.208 1.94454L16.7938 5.12652L5.65685 8.48528C5.65685 8.48528 3.77124 6.01041 0 1.06066Z" sodipodi:nodetypes="cccccc"/><path id="shape189" transform="translate(213.625009586315, 79.1250035506948)" fill="none" stroke="#000000" stroke-width="1.95999999999984" stroke-linecap="square" stroke-linejoin="bevel" d="M4.25 0L0 5.5L1.875 14.125L13.625 13.875C13.625 13.7917 10.5 9.16667 4.25 0Z" sodipodi:nodetypes="ccccc"/><path id="shape190" transform="translate(220.250009883609, 94.375004235031)" fill="none" stroke="#000000" stroke-width="1.95999999999984" stroke-linecap="square" stroke-linejoin="bevel" d="M11.75 15.125L17.125 15.75L16.125 9.125L7.625 0L0 0.5C0 0.5 3.91667 5.375 11.75 15.125Z" sodipodi:nodetypes="cccccc"/><path id="shape191" transform="translate(322.12500935383, 107.000003107054)" fill="none" stroke="#000000" stroke-width="1.95999999999984" stroke-linecap="square" stroke-linejoin="bevel" d="M7.625 0L0 6.5L0.25 11.875L4.125 15.125L9.625 15.5L14.25 12.75L14.375 5.125C14.375 5.125 12.125 3.41667 7.625 0Z" sodipodi:nodetypes="cccccccc"/><path id="shape192" transform="translate(302.818468266976, 120.20814852396)" fill="none" stroke="#000000" stroke-width="1.95999999999984" stroke-linecap="square" stroke-linejoin="bevel" d="M10.253 0L0 6.18718L4.06586 12.9047L11.844 10.7834L19.0919 15.9099L24.3952 13.7886L15.5563 6.71751L16.9706 2.2981C16.9706 2.2981 14.7314 1.53206 10.253 0Z" sodipodi:nodetypes="ccccccccc"/><path id="shape193" transform="translate(68.2358054999683, 424.617629043844)" fill="none" stroke="#000000" stroke-width="1.95999999999984" stroke-linecap="square" stroke-linejoin="bevel" d="M11.3137 0L11.6673 15.5563L6.36396 21.9203L0.707107 21.9203L0 18.0312C0 18.0312 3.77124 12.0208 11.3137 0Z" sodipodi:nodetypes="cccccc"/><path id="shape194" transform="translate(83.4386002226187, 432.926127002528)" fill="none" stroke="#000000" stroke-width="1.95999999999984" stroke-linecap="square" stroke-linejoin="bevel" d="M6.54074 0L0 7.6014L0.353553 14.6725L3.71231 21.0364L15.5563 20.1525L18.7383 12.3744C18.7383 12.3744 14.6725 8.24958 6.54074 0Z" sodipodi:nodetypes="ccccccc"/><path id="shape195" transform="translate(98.8181727212793, 457.32131096592)" fill="none" stroke="#000000" stroke-width="1.95999999999984" stroke-linecap="square" stroke-linejoin="bevel" d="M17.6777 0L0.176777 12.9047L0 18.3848L7.07107 19.4454L18.3848 9.89949C18.3848 9.89949 18.1491 6.59966 17.6777 0Z" sodipodi:nodetypes="cccccc"/><path id="shape196" transform="translate(78.8424061425591, 454.139330448956)" fill="none" stroke="#000000" stroke-width="1.95999999999984" stroke-linecap="square" stroke-linejoin="bevel" d="M6.18718 0L11.4905 4.59619L20.8597 4.41942L20.6829 10.9602L15.026 17.1473L0.883883 16.2635L0 9.01561C0 9.01561 2.06239 6.01041 6.18718 0Z" sodipodi:nodetypes="cccccccc"/><path id="shape197" transform="translate(68.9429112008925, 446.537932547319)" fill="none" stroke="#000000" stroke-width="1.95999999999984" stroke-linecap="square" stroke-linejoin="bevel" d="M9.54594 0L2.82843 9.72272L0 29.1682L8.3085 17.1473C8.3085 17.1473 8.72098 11.4316 9.54594 0Z" sodipodi:nodetypes="ccccc"/><path id="shape198" transform="translate(50.5581348806545, 446.184379156546)" fill="none" stroke="#000000" stroke-width="1.95999999999984" stroke-linecap="square" stroke-linejoin="bevel" d="M12.1976 0L3.35876 9.54594L3.35876 18.5616L0 26.5165L1.94454 34.1179L4.59619 35.8857L10.0763 35.1786L9.01561 31.4663L13.9654 27.5772L14.8492 7.42462C14.8492 7.42462 13.9654 4.94975 12.1976 0Z" sodipodi:nodetypes="ccccccccccc"/><path id="shape199" transform="translate(62.7557268623509, 476.76674745848)" fill="none" stroke="#000000" stroke-width="1.95999999999984" stroke-linecap="square" stroke-linejoin="bevel" d="M4.41942 0L10.7834 0L10.7834 5.65685L6.71751 13.0815L1.41421 11.844L2.13163e-14 6.18718C2.13163e-14 6.18718 1.47314 4.12479 4.41942 0Z" sodipodi:nodetypes="ccccccc"/><path id="shape200" transform="translate(74.9533188440473, 475.706087286158)" fill="none" stroke="#000000" stroke-width="1.95999999999984" stroke-linecap="square" stroke-linejoin="bevel" d="M12.9047 0L7.77817 4.59619L1.94454 4.94975L0 17.5009L4.59619 21.5668L19.6222 22.4506L24.2184 15.5563L18.5616 9.54594L17.6777 1.59099C17.6777 1.59099 16.0867 1.06066 12.9047 0Z" sodipodi:nodetypes="cccccccccc"/><path id="shape201" transform="translate(114.197747320257, 470.933125172082)" fill="none" stroke="#000000" stroke-width="1.95999999999984" stroke-linecap="square" stroke-linejoin="bevel" d="M7.95495 0L9.8995 5.65685L9.19239 11.1369L5.65685 12.9047L0 8.83883L1.76777 0.53033C1.76777 0.53033 3.83016 0.353553 7.95495 0Z" sodipodi:nodetypes="ccccccc"/><path id="shape202" transform="translate(32.1733591521467, 452.371571815074)" fill="none" stroke="#000000" stroke-width="1.95999999999984" stroke-linecap="square" stroke-linejoin="bevel" d="M16.4402 14.8492L4.06586 16.0867L0 13.6118L1.76777 9.72272L15.026 0L19.9758 3.88909C19.9758 3.88909 18.7973 7.54247 16.4402 14.8492Z" sodipodi:nodetypes="ccccccc"/><path id="shape203" transform="translate(66.9983654295826, 499.747702030158)" fill="none" stroke="#000000" stroke-width="1.95999999999984" stroke-linecap="square" stroke-linejoin="bevel" d="M0 1.06066L14.4957 0L12.5511 5.83363L3.18198 6.36396C3.18198 6.36396 2.12132 4.59619 0 1.06066Z" sodipodi:nodetypes="ccccc"/><path id="shape204" transform="translate(103.250005617706, 479.250026075404)" fill="none" stroke="#000000" stroke-width="1.95999999999984" stroke-linecap="square" stroke-linejoin="bevel" d="M0 16.625L13.375 16.5L18.75 9.625L14.125 9.875L14.125 5.125L7.5 0L5.25 12.125C5.25 12.125 3.5 13.625 0 16.625Z" sodipodi:nodetypes="cccccccc"/><path id="shape205" transform="translate(32.2500007332217, 655.00001489179)" fill="none" stroke="#000000" stroke-width="1.95999999999984" stroke-linecap="square" stroke-linejoin="bevel" d="M0 0.25L0.75 7.25L12 9L12.5 3.75L7.75 0C7.75 0 5.16667 0.0833333 0 0.25Z" sodipodi:nodetypes="cccccc"/><path id="shape206" transform="translate(52.000001182249, 642.500014607596)" fill="none" stroke="#000000" stroke-width="1.95999999999984" stroke-linecap="square" stroke-linejoin="bevel" d="M10.25 0L26.5 0L26.25 10.5L32.25 18L32.25 24.25L26.5 23.25L26.25 29.5L8.25 29L7.5 22.75L0 21.75L0 16.75C0 16.75 3.41667 11.1667 10.25 0Z" sodipodi:nodetypes="cccccccccccc"/><path id="shape207" transform="translate(88.0000020007291, 654.750014886106)" fill="none" stroke="#000000" stroke-width="1.95999999999984" stroke-linecap="square" stroke-linejoin="bevel" d="M0 1.25L3.75 8.25L13.75 9.75L20 5L5.25 3.41061e-13C5.25 3.41061e-13 3.5 0.416667 0 1.25Z" sodipodi:nodetypes="cccccc"/><path id="shape208" transform="translate(120.250002733951, 653.750014863371)" fill="none" stroke="#000000" stroke-width="1.95999999999984" stroke-linecap="square" stroke-linejoin="bevel" d="M0 5.25L13.25 0L13 13.25C12.8333 13.4167 8.5 10.75 0 5.25Z" sodipodi:nodetypes="cccc"/><path id="shape209" transform="translate(149.000003387598, 655.00001489179)" fill="none" stroke="#000000" stroke-width="1.95999999999984" stroke-linecap="square" stroke-linejoin="bevel" d="M1 0.25L15.25 0L22.75 5.25L13.75 12.5L5.5 12L0 8.5C0 8.5 0.333333 5.75 1 0.25Z" sodipodi:nodetypes="ccccccc"/><path id="shape210" transform="translate(182.750004154923, 652.750014840635)" fill="none" stroke="#000000" stroke-width="1.95999999999984" stroke-linecap="square" stroke-linejoin="bevel" d="M0 3.75L1 9.25L4.25 11.75L11 10.25L8.5 0C8.5 0 5.66667 1.25 0 3.75Z" sodipodi:nodetypes="cccccc"/><path id="shape211" transform="translate(212.75000483699, 654.250014874738)" fill="none" stroke="#000000" stroke-width="1.95999999999984" stroke-linecap="square" stroke-linejoin="bevel" d="M0.75 0.5L7.5 0L11.75 3.75L11.25 9.25L3.5 10L0 7C0 7 0.25 4.83333 0.75 0.5Z" sodipodi:nodetypes="ccccccc"/><path id="shape212" transform="translate(240.250005462218, 650.50001478948)" fill="none" stroke="#000000" stroke-width="1.95999999999984" stroke-linecap="square" stroke-linejoin="bevel" d="M0.75 3.5L0 15.25L13.5 21.5L13.25 6.5L5.5 0C5.5 0 3.91667 1.16667 0.75 3.5Z" sodipodi:nodetypes="cccccc"/><path id="shape213" transform="translate(32.0000007275378, 686.750015613644)" fill="none" stroke="#000000" stroke-width="1.95999999999984" stroke-linecap="square" stroke-linejoin="bevel" d="M1.25 0L13.5 1.25L13.75 5.25L4.75 8.5L0 5.5C0 5.5 0.416667 3.66667 1.25 0Z" sodipodi:nodetypes="cccccc"/><path id="shape214" transform="translate(58.5000013300301, 686.50001560796)" fill="none" stroke="#000000" stroke-width="1.95999999999984" stroke-linecap="square" stroke-linejoin="bevel" d="M0 0.75L23.75 0L19.5 7L14.5 9.5L6.5 8.75L0.75 6.75C0.75 6.75 0.5 4.75 0 0.75Z" sodipodi:nodetypes="ccccccc"/><path id="shape215" transform="translate(92.750002108723, 682.00001550565)" fill="none" stroke="#000000" stroke-width="1.95999999999984" stroke-linecap="square" stroke-linejoin="bevel" d="M0 12.25L12.25 13L12.5 4L6.75 0C6.75 0 4.5 4.08333 0 12.25Z" sodipodi:nodetypes="ccccc"/><path id="shape216" transform="translate(118.500002694164, 684.250015556805)" fill="none" stroke="#000000" stroke-width="1.95999999999984" stroke-linecap="square" stroke-linejoin="bevel" d="M2 10L17.75 10.5L17.25 3L13 0L0 4.75C0 4.75 0.666667 6.5 2 10Z" sodipodi:nodetypes="cccccc"/><path id="shape217" transform="translate(153.750003495592, 685.500015585225)" fill="none" stroke="#000000" stroke-width="1.95999999999984" stroke-linecap="square" stroke-linejoin="bevel" d="M0.5 0L8.25 0.25L13.25 5.75L2 7.5L0 4.75C0 4.75 0.166667 3.16667 0.5 0Z" sodipodi:nodetypes="cccccc"/><path id="shape218" transform="translate(182.750004154923, 684.250015556805)" fill="none" stroke="#000000" stroke-width="1.95999999999984" stroke-linecap="square" stroke-linejoin="bevel" d="M1 0L8 0L11 3.25L10.25 8.75L3.25 9.75L0 6.75C0 6.75 0.333333 4.5 1 0Z" sodipodi:nodetypes="ccccccc"/><path id="shape219" transform="translate(210.000004774467, 679.750015454495)" fill="none" stroke="#000000" stroke-width="1.95999999999984" stroke-linecap="square" stroke-linejoin="bevel" d="M0 8L2.25 15.25L6 17.25L13.5 16.75L17.75 11L15.25 2.75L7.25 0C7.25 0 4.83333 2.66667 0 8Z" sodipodi:nodetypes="cccccccc"/><path id="shape220" transform="translate(237.500005399695, 685.250015579541)" fill="none" stroke="#000000" stroke-width="1.95999999999984" stroke-linecap="square" stroke-linejoin="bevel" d="M0 1.25L19.25 0L18.75 4.5L11 7.75L0.25 6C0.25 6 0.166667 4.41667 0 1.25Z" sodipodi:nodetypes="cccccc"/><path id="shape221" transform="translate(262.999999999979, 683.000015528386)" fill="none" stroke="#000000" stroke-width="1.95999999999984" stroke-linecap="square" stroke-linejoin="bevel" d="M0 1L26.25 0L20.5 12.25L9.50001 12.25C9.50001 12.25 6.33334 8.5 0 1Z" sodipodi:nodetypes="ccccc"/><path id="shape222" transform="translate(269.750006132917, 656.000014914526)" fill="none" stroke="#000000" stroke-width="1.95999999999984" stroke-linecap="square" stroke-linejoin="bevel" d="M0 0L14.75 0.5L10.75 7.25L5.75 7.25C5.75 7.25 3.83333 4.83333 0 0Z" sodipodi:nodetypes="ccccc"/><path id="shape223" transform="translate(295.484381718002, 649.750014772428)" fill="none" stroke="#000000" stroke-width="1.95999999999984" stroke-linecap="square" stroke-linejoin="bevel" d="M3.51563 16L14.0156 16L18.0156 11.5L18.0156 4.75L13.0156 0L6.26563 0.75L0.015625 6C-0.151042 6 1.01563 9.33333 3.51563 16Z" sodipodi:nodetypes="cccccccc"/><path id="shape224" transform="translate(324.750007383372, 651.000014800848)" fill="none" stroke="#000000" stroke-width="1.95999999999984" stroke-linecap="square" stroke-linejoin="bevel" d="M4.25 18.75L41.5 18.25L43.25 10.25L32 0L20 2L8.5 3L0 8.5C0 8.5 1.41667 11.9167 4.25 18.75Z" sodipodi:nodetypes="cccccccc"/><path id="shape225" transform="translate(300.500006832035, 683.500015539754)" fill="none" stroke="#000000" stroke-width="1.95999999999984" stroke-linecap="square" stroke-linejoin="bevel" d="M4 10.75L11.25 10.5L12.5 4.75L8.25 0.75L4 0L0 4.5C0 4.66667 1.33333 6.75 4 10.75Z" sodipodi:nodetypes="ccccccc"/><path id="shape226" transform="translate(338.000007684618, 683.000015528386)" fill="none" stroke="#000000" stroke-width="1.95999999999984" stroke-linecap="square" stroke-linejoin="bevel" d="M4.25 0L0 5.25L3.5 9.5L9.75 10L12.5 4.25C12.5 4.25 9.75 2.83333 4.25 0Z" sodipodi:nodetypes="cccccc"/><path id="shape227" transform="translate(360.750008201852, 679.250015443127)" fill="none" stroke="#000000" stroke-width="1.95999999999984" stroke-linecap="square" stroke-linejoin="bevel" d="M8 0L0 12.75L9.5 15.5L18.25 16L22.5 9.75C22.5 9.75 17.6667 6.5 8 0Z" sodipodi:nodetypes="cccccc"/><path id="shape228" transform="translate(366.500008332582, 653.750014863371)" fill="none" stroke="#000000" stroke-width="1.95999999999984" stroke-linecap="square" stroke-linejoin="bevel" d="M0 1.25L17.5 0L13.25 10L3.75 10C3.75 10 2.5 7.08333 0 1.25Z" sodipodi:nodetypes="ccccc"/><path id="shape229" transform="translate(391.750008906655, 650.000014778112)" fill="none" stroke="#000000" stroke-width="1.95999999999984" stroke-linecap="square" stroke-linejoin="bevel" d="M11 0L0 11L2.25 13.75L21.5 13.25C21.5 13.25 18 8.83333 11 0Z" sodipodi:nodetypes="ccccc"/><path id="shape230" transform="translate(399.000009071487, 685.250015579541)" fill="none" stroke="#000000" stroke-width="1.95999999999984" stroke-linecap="square" stroke-linejoin="bevel" d="M0 0L8.25 0.5L9.75 7.25L0.25 7.5C0.25 7.5 0.166667 5 0 0Z" sodipodi:nodetypes="ccccc"/><path id="shape231" transform="translate(417.000009480727, 661.000015028204)" fill="none" stroke="#000000" stroke-width="1.95999999999984" stroke-linecap="square" stroke-linejoin="bevel" d="M0 3.75L7.75 0L13.75 2.25L13 6.75L8 8.5L0.5 8.25C0.5 8.25 0.333333 6.75 0 3.75Z" sodipodi:nodetypes="ccccccc"/><path id="shape232" transform="translate(421.500009583037, 683.500015539754)" fill="none" stroke="#000000" stroke-width="1.95999999999984" stroke-linecap="square" stroke-linejoin="bevel" d="M0 3.75L11 0L21.75 2L21.5 6.25L14.75 10.5L5.25 10.75C5.25 10.75 3.5 8.41667 0 3.75Z" sodipodi:nodetypes="ccccccc"/><path id="shape233" transform="translate(451.750010270788, 683.750015545437)" fill="none" stroke="#000000" stroke-width="1.95999999999984" stroke-linecap="square" stroke-linejoin="bevel" d="M0.5 2.75L14 0L17.5 4.25L11 11.5L4.5 11.75L0 8.75C0 8.75 0.166667 6.75 0.5 2.75Z" sodipodi:nodetypes="ccccccc"/><path id="shape234" transform="translate(455.000010344679, 655.00001489179)" fill="none" stroke="#000000" stroke-width="1.95999999999984" stroke-linecap="square" stroke-linejoin="bevel" d="M1.75 0L9 0.75L10.75 5L8.75 9L1.5 9L0 5.25C0 5.25 0.583333 3.5 1.75 0Z" sodipodi:nodetypes="ccccccc"/><path id="shape235" transform="translate(481.500010947171, 681.750015499966)" fill="none" stroke="#000000" stroke-width="1.95999999999984" stroke-linecap="square" stroke-linejoin="bevel" d="M0 5.75L13 0L12.25 9.5L8 13.75L2.25 12.75C2.25 12.75 1.5 10.4167 0 5.75Z" sodipodi:nodetypes="cccccc"/><path id="shape236" transform="translate(480.250010918752, 649.750014772428)" fill="none" stroke="#000000" stroke-width="1.95999999999984" stroke-linecap="square" stroke-linejoin="bevel" d="M0 12.5L14.75 0L16.5 2.5L5.75 15L1.5 15.75C1.5 15.75 1 14.6667 0 12.5Z" sodipodi:nodetypes="cccccc"/><path id="shape237" transform="translate(231.000010090731, 111.750004881555)" fill="none" stroke="#000000" stroke-width="1.95999999999984" stroke-linecap="square" stroke-linejoin="bevel" d="M0 0L10.5 16L15.75 12.75L10.75 6.75L10.5 3.25C10.5 3.25 7 2.16667 0 0Z" sodipodi:nodetypes="cccccc"/><path id="shape238" transform="translate(308.65210589048, 448.30569332088)" fill="none" stroke="#000000" stroke-width="1.95999999999984" stroke-linecap="square" stroke-linejoin="bevel" d="M6.71751 0L22.0971 7.95495L21.39 13.0815L12.1976 18.3848L2.47487 14.4957L0 3.35876C0 3.35876 2.23917 2.23917 6.71751 0Z" sodipodi:nodetypes="ccccccc"/>
</svg>
