<?xml version="1.0" standalone="no"?>
<!DOCTYPE svg PUBLIC "-//W3C//DTD SVG 20010904//EN" "http://www.w3.org/TR/2001/REC-SVG-20010904/DTD/svg10.dtd">
<!-- Created using Krita: https://krita.org -->
<svg xmlns="http://www.w3.org/2000/svg" 
    xmlns:xlink="http://www.w3.org/1999/xlink"
    xmlns:krita="http://krita.org/namespaces/svg/krita"
    xmlns:sodipodi="http://sodipodi.sourceforge.net/DTD/sodipodi-0.dtd"
    width="526pt"
    height="710pt"
    viewBox="0 0 526 710">
<defs/>
<path id="shape0" transform="translate(359.563798233359, 328.451099861151)" fill="none" stroke="#ff0000" stroke-width="2.04999999999984" stroke-linecap="square" stroke-linejoin="bevel" d="M6.01041 21.5668L0.707107 33.5876L25.4558 46.3155L35.3553 42.0729L43.1335 26.5489L33.234 20.1525L22.6274 16.9706L17.3241 0L0 1.41421C0 1.41421 2.00347 8.13173 6.01041 21.5668Z" sodipodi:nodetypes="cccccccccc"/>
<path id="shape1" transform="translate(321.026478658692, 340.471915141323)" fill="none" stroke="#ff0000" stroke-width="2.04999999999984" stroke-linecap="square" stroke-linejoin="bevel" d="M13.0815 0L27.5772 9.54594L26.8701 14.5281L12.0208 14.5281L0 6.01041C0 6.01041 4.36049 4.00694 13.0815 0Z" sodipodi:nodetypes="cccccc"/><path id="shape2" transform="translate(288.146013333518, 346.835876172001)" fill="none" stroke="#000000" stroke-width="2.04999999999984" stroke-linecap="square" stroke-linejoin="bevel" d="M18.3848 0L18.3848 18.3848L0 19.0919L0.353553 0C0.353553 0 6.36396 0 18.3848 0Z" sodipodi:nodetypes="ccccc"/><path id="shape3" transform="translate(305.116576081995, 298.399061660723)" fill="none" stroke="#000000" stroke-width="2.04999999999984" stroke-linecap="square" stroke-linejoin="bevel" d="M13.0815 0L0 13.435L7.07107 22.981L20.8597 26.163C20.8597 26.163 18.2669 17.442 13.0815 0Z" sodipodi:nodetypes="ccccc"/><path id="shape4" transform="translate(341.179021922509, 301.934595566656)" fill="none" stroke="#000000" stroke-width="2.04999999999984" stroke-linecap="square" stroke-linejoin="bevel" d="M1.06066 1.76777L0 12.0208L15.5563 19.0919L25.4558 15.9099L22.2739 0C22.2739 0 15.2028 0.589256 1.06066 1.76777Z" sodipodi:nodetypes="cccccc"/><path id="shape5" transform="translate(334.107954110644, 366.281312654632)" fill="none" stroke="#000000" stroke-width="2.04999999999984" stroke-linecap="square" stroke-linejoin="bevel" d="M7.07107 1.76777L7.77817 15.2028L0 15.9099L1.06066 0C1.06066 0 3.06413 0.589256 7.07107 1.76777Z" sodipodi:nodetypes="ccccc"/><path id="shape6" transform="translate(271.75001395241, 303.000015556873)" fill="none" stroke="#000000" stroke-width="2.04999999999984" stroke-linecap="square" stroke-linejoin="bevel" d="M5 0.25L15 11.75L16.5 16.25L6.75 19.75L0.5 16L0 0C0 0 1.66667 0.0833333 5 0.25Z" sodipodi:nodetypes="ccccccc"/><path id="shape7" transform="translate(286.250014696881, 287.750014773895)" fill="none" stroke="#000000" stroke-width="2.04999999999984" stroke-linecap="square" stroke-linejoin="bevel" d="M0 0L0.5 7.75L18.5 9.25L19.5 0.25C19.3333 0.25 12.8333 0.166667 0 0Z" sodipodi:nodetypes="ccccc"/><path id="shape8" transform="translate(290.500014915088, 264.500013580174)" fill="none" stroke="#000000" stroke-width="2.04999999999984" stroke-linecap="square" stroke-linejoin="bevel" d="M0.5 0L0 8L6.5 12.25L14 8.25L14.25 0.75C13.75 0.583333 9.16667 0.333333 0.5 0Z" sodipodi:nodetypes="cccccc"/><path id="shape9" transform="translate(331.250017007307, 264.75001359301)" fill="none" stroke="#000000" stroke-width="2.04999999999984" stroke-linecap="square" stroke-linejoin="bevel" d="M1.25 0L0 9.25L13 13.5L17.75 4C17.5833 3.83333 12.0833 2.5 1.25 0Z" sodipodi:nodetypes="ccccc"/><path id="shape10" transform="translate(354.000018175356, 284.750014619866)" fill="none" stroke="#000000" stroke-width="2.04999999999984" stroke-linecap="square" stroke-linejoin="bevel" d="M3.75 0L0 6.5L8 11.25L14 6C14 6.16667 10.5833 4.16667 3.75 0Z" sodipodi:nodetypes="ccccc"/><path id="shape11" transform="translate(362.750018624606, 265.000013605846)" fill="none" stroke="#000000" stroke-width="2.04999999999984" stroke-linecap="square" stroke-linejoin="bevel" d="M13 0L0 7.75L12.75 12.25L29.5 8.5C29.5 8.5 24 5.66667 13 0Z" sodipodi:nodetypes="ccccc"/><path id="shape12" transform="translate(390.250020036533, 307.750015800751)" fill="none" stroke="#000000" stroke-width="2.04999999999984" stroke-linecap="square" stroke-linejoin="bevel" d="M0 0L11.25 18.75L14.75 5.5C14.0833 5.33333 9.16667 3.5 0 0Z" sodipodi:nodetypes="cccc"/><path id="shape13" transform="translate(348.250096139367, 230.163261509368)" fill="none" stroke="#000000" stroke-width="2.04999999999984" stroke-linecap="square" stroke-linejoin="bevel" d="M0 5.65685L8.48528 17.3241L22.2739 18.3848L22.6274 8.13173L5.3033 0C5.3033 0 3.53553 1.88562 0 5.65685Z" sodipodi:nodetypes="cccccc"/><path id="shape14" transform="translate(306.530795282062, 224.15285375874)" fill="none" stroke="#000000" stroke-width="2.04999999999984" stroke-linecap="square" stroke-linejoin="bevel" d="M0 6.01041L11.6673 31.1127L14.4957 30.7591L29.3449 19.4454L8.13173 0C8.13173 0 5.42115 2.00347 0 6.01041Z" sodipodi:nodetypes="cccccc"/><path id="shape15" transform="translate(378.655688289606, 223.092193567452)" fill="none" stroke="#000000" stroke-width="2.04999999999984" stroke-linecap="square" stroke-linejoin="bevel" d="M0 9.8995L30.4056 33.9411L45.9619 30.4056L9.54594 0C9.54594 0 6.36396 3.29983 0 9.8995Z" sodipodi:nodetypes="ccccc"/><path id="shape16" transform="translate(279.660737102781, 245.719610981584)" fill="none" stroke="#000000" stroke-width="2.04999999999984" stroke-linecap="square" stroke-linejoin="bevel" d="M0 0L12.3744 8.48528L26.5165 7.07107L26.8701 2.82843C26.8701 2.82843 17.9134 1.88562 0 0Z" sodipodi:nodetypes="ccccc"/><path id="shape17" transform="translate(275.418096337631, 214.960465434249)" fill="none" stroke="#000000" stroke-width="2.04999999999984" stroke-linecap="square" stroke-linejoin="bevel" d="M10.9602 0L0 10.253L10.9602 20.5061L23.6881 11.6673C23.6881 11.6673 19.4454 7.77817 10.9602 0Z" sodipodi:nodetypes="ccccc"/><path id="shape18" transform="translate(227.334834332602, 307.237902076253)" fill="none" stroke="#000000" stroke-width="2.04999999999984" stroke-linecap="square" stroke-linejoin="bevel" d="M26.163 0L26.163 21.2132L15.2028 24.7487L0.707107 22.981L0 0C0 0 8.72098 0 26.163 0Z" sodipodi:nodetypes="cccccc"/><path id="shape19" transform="translate(323.147799828001, 185.261977144281)" fill="none" stroke="#000000" stroke-width="2.04999999999984" stroke-linecap="square" stroke-linejoin="bevel" d="M22.2739 0L0 20.8597L6.01041 37.1231L33.234 18.3848C32.7626 18.3848 29.1092 12.2565 22.2739 0Z" sodipodi:nodetypes="ccccc"/><path id="shape20" transform="translate(366.281313590601, 200.818326370136)" fill="none" stroke="#000000" stroke-width="2.04999999999984" stroke-linecap="square" stroke-linejoin="bevel" d="M0 0.353553L9.54594 13.7886L23.6881 13.7886L25.8094 0C25.5737 0 16.9706 0.117851 0 0.353553Z" sodipodi:nodetypes="ccccc"/><path id="shape21" transform="translate(287.438907286833, 191.625938191222)" fill="none" stroke="#000000" stroke-width="2.04999999999984" stroke-linecap="square" stroke-linejoin="bevel" d="M18.3848 0L19.799 11.6673L11.6673 17.6777L0 14.1421C0 14.1421 6.12826 9.42809 18.3848 0Z" sodipodi:nodetypes="ccccc"/><path id="shape22" transform="translate(408.354167178711, 265.872150405533)" fill="none" stroke="#000000" stroke-width="2.04999999999984" stroke-linecap="square" stroke-linejoin="bevel" d="M1.06066 10.6066L16.2635 12.7279L23.6881 3.53553L0 0C0 0 0.353553 3.53553 1.06066 10.6066Z" sodipodi:nodetypes="ccccc"/><path id="shape23" transform="translate(229.456151081371, 223.09219003443)" fill="none" stroke="#000000" stroke-width="2.04999999999984" stroke-linecap="square" stroke-linejoin="bevel" d="M25.1023 2.47487L19.0919 17.6777L38.8909 27.2236L33.5438 45.9619L19.4454 37.1231L0 42.78L9.19239 0C9.19239 0 14.4957 0.824958 25.1023 2.47487Z" sodipodi:nodetypes="cccccccc"/>
</svg>
